<svg width="18" height="17" viewBox="0 0 18 17" fill="none" xmlns="http://www.w3.org/2000/svg">
<path d="M13.1667 14.6667H4.83335V15.5C4.83335 15.721 4.74556 15.933 4.58928 16.0893C4.433 16.2455 4.22103 16.3333 4.00002 16.3333H3.16669C2.94567 16.3333 2.73371 16.2455 2.57743 16.0893C2.42115 15.933 2.33335 15.721 2.33335 15.5V14.6667H1.50002V8H0.666687V4.66667H1.50002V2.16667C1.50002 1.72464 1.67562 1.30072 1.98818 0.988155C2.30074 0.675595 2.72466 0.5 3.16669 0.5H14.8334C15.2754 0.5 15.6993 0.675595 16.0119 0.988155C16.3244 1.30072 16.5 1.72464 16.5 2.16667V4.66667H17.3334V8H16.5V14.6667H15.6667V15.5C15.6667 15.721 15.5789 15.933 15.4226 16.0893C15.2663 16.2455 15.0544 16.3333 14.8334 16.3333H14C13.779 16.3333 13.567 16.2455 13.4108 16.0893C13.2545 15.933 13.1667 15.721 13.1667 15.5V14.6667ZM3.16669 2.16667V9.66667H14.8334V2.16667H3.16669ZM3.16669 11.3333V13H6.50002V11.3333H3.16669ZM11.5 11.3333V13H14.8334V11.3333H11.5Z" fill="#F04935"/>
</svg>
