<svg width="24" height="28" viewBox="0 0 24 28" fill="none" xmlns="http://www.w3.org/2000/svg">
<path d="M12 24.125L18.1875 17.9375C19.4111 16.7137 20.2444 15.1546 20.5819 13.4573C20.9195 11.76 20.7462 10.0007 20.0839 8.40194C19.4216 6.80314 18.3001 5.43663 16.8612 4.4752C15.4222 3.51378 13.7306 3.00063 12 3.00063C10.2695 3.00063 8.57777 3.51378 7.13886 4.4752C5.69995 5.43663 4.57844 6.80314 3.91614 8.40194C3.25385 10.0007 3.08052 11.76 3.41807 13.4573C3.75562 15.1546 4.58888 16.7137 5.8125 17.9375L12 24.125ZM12 27.66L4.04501 19.705C2.47168 18.1316 1.40023 16.1271 0.966161 13.9448C0.532088 11.7625 0.754884 9.50053 1.60637 7.44487C2.45786 5.38921 3.8998 3.63221 5.74985 2.39605C7.5999 1.15989 9.77497 0.500092 12 0.500092C14.225 0.500092 16.4001 1.15989 18.2502 2.39605C20.1002 3.63221 21.5421 5.38921 22.3936 7.44487C23.2451 9.50053 23.4679 11.7625 23.0338 13.9448C22.5998 16.1271 21.5283 18.1316 19.955 19.705L12 27.66ZM12 14.25C12.663 14.25 13.2989 13.9866 13.7678 13.5178C14.2366 13.0489 14.5 12.413 14.5 11.75C14.5 11.087 14.2366 10.4511 13.7678 9.98223C13.2989 9.51339 12.663 9.24999 12 9.24999C11.337 9.24999 10.7011 9.51339 10.2322 9.98223C9.7634 10.4511 9.5 11.087 9.5 11.75C9.5 12.413 9.7634 13.0489 10.2322 13.5178C10.7011 13.9866 11.337 14.25 12 14.25ZM12 16.75C10.6739 16.75 9.40215 16.2232 8.46447 15.2855C7.52679 14.3478 7 13.0761 7 11.75C7 10.4239 7.52679 9.15214 8.46447 8.21446C9.40215 7.27678 10.6739 6.74999 12 6.74999C13.3261 6.74999 14.5979 7.27678 15.5355 8.21446C16.4732 9.15214 17 10.4239 17 11.75C17 13.0761 16.4732 14.3478 15.5355 15.2855C14.5979 16.2232 13.3261 16.75 12 16.75Z" fill="white"/>
</svg>
