<svg width="79" height="40" viewBox="0 0 79 40" fill="none" xmlns="http://www.w3.org/2000/svg">
<g clip-path="url(#clip0_38_2559)">
<path d="M36.847 31.4722C36.1591 32.3269 35.3079 33.0245 34.347 33.5213C33.4242 33.9854 32.4107 34.2229 31.385 34.2152C29.6004 34.2152 28.1365 33.519 26.9934 32.1265C25.8503 30.7341 25.2783 28.9265 25.2776 26.7039C25.2776 23.9189 26.0519 21.6064 27.6006 19.7664C29.1493 17.9264 31.0828 17.0068 33.4012 17.0075C34.4054 16.9902 35.3985 17.2285 36.2932 17.7015C37.1451 18.1649 37.9144 18.88 38.601 19.8468L38.9548 17.5181H44.1547L42.2499 29.9824C42.0949 30.9973 41.5956 31.9216 40.8418 32.589C40.0881 33.2564 39.1292 33.6231 38.1379 33.6232H36.587L36.847 31.4722ZM30.7985 26.1435C30.7985 27.1744 31.101 28.0046 31.7061 28.6341C32.3112 29.2635 33.1121 29.5771 34.1089 29.5748C35.196 29.5748 36.101 29.1363 36.824 28.2593C37.547 27.3824 37.9085 26.2846 37.9085 24.9661C37.9085 23.9668 37.606 23.1563 37.001 22.5344C36.3959 21.9125 35.6062 21.6012 34.632 21.6004C34.1112 21.5893 33.5945 21.6994 33.1201 21.9225C32.6457 22.1457 32.2256 22.4762 31.8907 22.8899C31.1626 23.7518 30.7985 24.8363 30.7985 26.1435Z" fill="#F04935"/>
<path d="M56.5735 33.6231L59.0342 17.5158H64.2962L63.9096 20.2645C64.3916 19.2449 65.0378 18.4687 65.8482 17.9358C66.6586 17.403 67.6022 17.1388 68.6791 17.1434C68.8076 17.1443 68.9359 17.1522 69.0636 17.1671C69.2077 17.183 69.4327 17.2181 69.7407 17.2713L68.6485 22.3261C68.2896 22.2415 67.9663 22.1778 67.6787 22.1347C67.4038 22.0936 67.1264 22.0724 66.8486 22.0713C65.7914 22.0713 64.9577 22.4144 64.3476 23.1004C63.7374 23.7865 63.3195 24.8468 63.0937 26.2816L62.4821 30.3412C62.344 31.259 61.8937 32.0953 61.2127 32.699C60.5317 33.3028 59.6649 33.6342 58.7687 33.6333L56.5735 33.6231Z" fill="#F04935"/>
<path d="M69.9726 33.6228L72.4191 17.5154H77.9422L76.0462 29.922C75.8883 30.9537 75.3806 31.8932 74.6142 32.5716C73.8478 33.25 72.8731 33.6227 71.8653 33.6228H69.9726Z" fill="#F04935"/>
<path d="M72.8326 12.7154C72.8337 11.9121 73.1422 11.1421 73.6902 10.5742C74.2383 10.0063 74.9813 9.68687 75.7563 9.68597C76.6067 9.68597 77.3145 9.97277 77.8795 10.5464C78.1575 10.8277 78.3762 11.1657 78.5219 11.539C78.6675 11.9123 78.737 12.3129 78.7259 12.7154C78.7296 13.1207 78.6552 13.5227 78.5073 13.8978C78.3593 14.273 78.1407 14.6138 77.8643 14.9004C77.5878 15.187 77.259 15.4136 76.897 15.567C76.5351 15.7203 76.1473 15.7974 75.7563 15.7936C75.3696 15.7994 74.986 15.722 74.6297 15.5661C74.2734 15.4102 73.9523 15.1792 73.6866 14.8879C73.4106 14.604 73.1926 14.2652 73.0459 13.8919C72.8991 13.5186 72.8266 13.1185 72.8326 12.7154V12.7154Z" fill="#F04935"/>
<path d="M54.5086 16.5387H49.0554L48.9101 17.5157H46.326L45.6948 21.6308H48.2799L46.4484 33.623H48.5923C49.5167 33.6231 50.4108 33.2809 51.1134 32.6583C51.816 32.0356 52.2811 31.1733 52.4247 30.2268L53.7255 21.632H56.5105L57.1418 17.5168H54.3568L54.5086 16.5387Z" fill="#F04935"/>
<path d="M55.0781 12.8435H49.6009L49.0537 16.5386H54.5058L55.0781 12.8435Z" fill="#F04935"/>
<path d="M11.9982 3.72149C11.9922 3.24692 12.0795 2.77605 12.2547 2.33756C12.4298 1.89906 12.6893 1.50212 13.0172 1.1709C13.3362 0.826631 13.7202 0.554241 14.1452 0.370751C14.5703 0.187261 15.0273 0.0966138 15.4877 0.104475C16.5035 0.104475 17.3481 0.447119 18.0216 1.13241C18.6951 1.8177 19.0318 2.68073 19.0318 3.72149C19.0407 4.20528 18.954 4.68584 18.7771 5.13362C18.6002 5.5814 18.3367 5.98694 18.003 6.32529C17.6766 6.6712 17.2853 6.94426 16.8534 7.12765C16.4214 7.31105 15.9577 7.40091 15.491 7.39171C15.0299 7.39923 14.5722 7.30754 14.147 7.12242C13.7218 6.93731 13.3382 6.6628 13.0205 6.31623C12.6903 5.97737 12.4296 5.57286 12.2539 5.12699C12.0783 4.68112 11.9913 4.20306 11.9982 3.72149V3.72149Z" fill="#F04935"/>
<path d="M3.1304 23.2528C2.70336 23.3151 2.35059 23.366 2.03058 23.546C1.72036 23.6936 1.45421 23.9251 1.26011 24.2161C1.066 24.5072 0.951106 24.847 0.92749 25.2L2.20424 35.2914L2.51114 37.8397C2.52269 38.0039 2.55237 38.166 2.5996 38.3231C2.63828 38.4494 2.69458 38.5692 2.76671 38.6786C2.91131 38.8992 3.11101 39.0749 3.34446 39.1869C3.59197 39.3039 3.86164 39.3619 4.13363 39.3566C4.40562 39.3513 4.673 39.2829 4.9161 39.1564C5.13856 39.0467 5.32759 38.8756 5.46245 38.662C5.59732 38.4483 5.6728 38.2002 5.68062 37.945L4.64087 27.8785L4.53165 26.7951L5.58341 26.6819L11.6471 26.0128L13.1642 25.8555C13.5886 25.8185 14.0075 25.7308 14.4125 25.594C15.141 25.3268 15.532 24.8909 15.8072 24.0679C16.0573 23.3015 16.1753 22.1513 16.3806 21.1426L16.9158 18.0294L17.9872 11.8029L18.2559 10.2712C18.3322 9.86016 18.3355 9.43815 18.2657 9.02589C18.2452 8.87499 18.1929 8.7306 18.1127 8.60288C18.0325 8.47515 17.9263 8.36721 17.8015 8.28663C17.5438 8.12022 17.1386 8.03871 16.7094 8.02852C14.9106 8.00021 13.02 8.77796 11.8306 10.2712C11.2203 11.0178 10.7791 11.8967 10.5397 12.8433C10.4291 13.3529 10.3478 13.8689 10.2961 14.3886L10.0886 15.9871L9.26075 22.1977C7.63888 22.5849 5.99626 22.7921 4.36346 23.0615L3.1304 23.2528Z" fill="#F04935"/>
<path d="M25.9808 8.95251H20.7635L20.1869 12.7269L20.1443 13.0031L19.7576 15.4563C19.2782 18.513 18.7823 21.6692 18.2625 24.7757C17.9348 26.7399 16.515 28.1029 14.5491 28.335C13.5279 28.4561 12.2457 28.6033 7.69025 28.7369L8.91457 34.146C12.5624 34.1278 14.453 33.7735 14.9051 33.7033C19.549 32.981 22.5296 30.315 23.2974 26.1964C23.9527 22.6994 24.4824 19.1311 25.0066 15.6182C25.1814 14.4462 25.3579 13.2737 25.5363 12.1008C25.5451 12.0476 25.5418 11.9978 25.5472 11.9457L25.9808 8.95251Z" fill="#F04935"/>
</g>
<defs>
<clipPath id="clip0_38_2559">
<rect width="79" height="40" fill="white"/>
</clipPath>
</defs>
</svg>
