<svg width="167" height="130" viewBox="0 0 167 130" fill="none" xmlns="http://www.w3.org/2000/svg">
<path d="M97.6446 33.2947L99.0161 34.0834L132.96 53.6724L35.195 110.202L1.40363 90.6451L0 89.8403L97.6446 33.2947Z" fill="#E0D4D3"/>
<path d="M33.7914 109.397L131.596 52.8676L132.96 53.6563L35.195 110.202L33.7914 109.397Z" fill="#FFDC48"/>
<path d="M132.96 53.6724V55.4429L35.195 111.972V110.202L132.96 53.6724Z" fill="#FFBC27"/>
<path d="M0 89.8161L35.195 110.202V111.988L0 91.6269V89.8161Z" fill="#AD9E9F"/>
<path d="M92.5434 65.0764L71.7055 53.0044L92.5354 40.9806L113.373 53.0527L92.5434 65.0764Z" fill="#C6B7B8"/>
<path d="M110.694 53.447L111.384 53.0446L92.5995 42.1636L73.8229 53.0043L74.5127 53.4067L92.5995 42.9604L110.694 53.447Z" fill="#AD9E9F"/>
<path d="M110.694 53.447L92.5995 42.9604L74.5127 53.4067L92.6075 63.8853L110.694 53.447Z" fill="#97C941"/>
<path d="M71.7055 53.0044V54.2357L92.5434 66.3078V65.0765L71.7055 53.0044Z" fill="#AD9E9F"/>
<path d="M113.373 53.0527V54.284L92.5434 66.3078V65.0764L113.373 53.0527Z" fill="#AD9E9F"/>
<path opacity="0.3" d="M97.5483 51.757C97.2435 51.6765 96.9307 51.6202 96.6099 51.5799C95.9041 50.5015 92.3268 50.3405 91.3964 50.4371C89.295 50.6624 85.6535 51.8857 86.1508 54.1794C86.6802 56.6019 90.474 57.0928 92.8401 56.9963C94.3721 56.9399 95.888 56.626 97.2756 56.0707C98.3343 55.6442 99.6257 55.0245 99.7781 53.93C99.9385 52.8193 98.6552 52.0628 97.5483 51.757Z" fill="#6C9925"/>
<path d="M91.9499 52.9078C92.4873 52.779 92.4471 52.7388 92.6477 52.1674C92.8482 51.596 92.7199 49.8415 92.7439 48.8033C92.76 48.0951 92.8001 46.3969 92.8321 45.3829H91.6691C91.6691 45.3829 91.5649 50.4451 91.5167 51.0567C91.4606 51.7167 91.5488 52.0467 91.2841 52.4249C91.1799 52.5778 90.9312 52.6985 90.3056 53.0848C89.9607 53.2941 89.6238 53.6884 89.5356 53.7931C89.9367 53.608 90.3698 53.5114 90.6906 53.4229C91.2039 53.27 91.4125 53.0366 91.9499 52.9078Z" fill="#804119"/>
<path d="M90.7387 53.6724C91.0515 53.5919 91.4125 53.27 91.621 53.6241C91.6852 53.7448 91.7413 54.0748 91.8616 54.2197C92.1664 54.606 92.4712 55.2981 92.4712 55.2981C92.6878 54.8555 92.4872 54.3404 92.4712 53.8817C92.4632 53.5758 92.5995 53.3505 93.0808 53.4149C93.5219 53.4712 93.9951 53.5195 94.2358 53.5597C94.8213 53.6644 95.7838 53.8978 95.7838 53.8978C95.7838 53.8978 95.0459 53.0608 94.4122 52.8193C93.9711 52.6503 93.6101 52.4732 93.5941 52.1674C93.554 51.3224 93.4738 45.3749 93.4738 45.3749H92.8562H92.8321C92.8081 46.397 92.7599 48.0951 92.7439 48.7953C92.7198 49.8335 92.8482 51.588 92.6477 52.1594C92.4471 52.7308 92.4872 52.771 91.9498 52.8998C91.4125 53.0286 91.2039 53.262 90.6986 53.4068C90.3778 53.5034 89.9366 53.6 89.5436 53.777C89.5276 53.7931 89.5196 53.8092 89.5196 53.8092C89.5196 53.8092 90.1532 53.8253 90.7387 53.6724Z" fill="#753814"/>
<path d="M92.0702 47.7571C91.9258 47.8295 91.9178 48.2239 91.9178 48.8114C91.9178 49.3667 91.8696 50.0347 91.8135 50.7027C91.7413 51.5316 91.4205 52.4893 91.8135 52.2399C92.2065 51.9984 92.2306 50.5578 92.2065 49.4955C92.1905 48.4492 92.4311 47.58 92.0702 47.7571Z" fill="#914920"/>
<path d="M92.9765 49.0769C92.9605 49.3184 93.0407 50.7751 92.9765 51.6201C92.9364 52.1754 92.8081 52.6744 92.6476 52.9561C92.4872 53.2297 92.4712 53.8897 92.4712 53.8897C92.4712 53.8897 92.5995 53.6402 93.0006 53.5758C93.5219 53.4792 94.7491 53.6804 94.7491 53.6804C94.7491 53.6804 94.5566 53.278 94.0914 53.1412C93.6903 53.0205 93.3455 52.7871 93.3455 52.5617C93.3535 52.1593 93.2091 50.8395 93.2412 50.3566C93.3535 48.9562 92.9925 48.8033 92.9765 49.0769Z" fill="#662C10"/>
<path d="M90.2174 53.7689C90.2174 53.7689 90.835 53.3826 91.2841 53.0848C91.7333 52.7871 91.8215 52.6422 91.9499 52.7629C92.0782 52.8756 91.9258 53.3343 91.8536 53.4631C91.7493 53.6563 91.8536 54.2277 91.8536 54.2277C91.8536 54.2277 91.5568 53.7931 91.4766 53.5677C91.4205 53.4148 91.0756 53.5516 90.8269 53.6482C90.5222 53.7609 90.2174 53.7689 90.2174 53.7689Z" fill="#662C10"/>
<path opacity="0.8" d="M91.6049 48.2078C91.6049 48.2078 91.9579 48.4975 92.4712 48.5619C93.0487 48.6343 93.5219 48.6745 93.5219 48.6745V45.061L91.629 45.23L91.6049 48.2078Z" fill="#662C10"/>
<path d="M99.0562 36.2162C99.0081 36.1598 98.96 36.1116 98.9118 36.0633C99.1605 35.6206 99.353 35.1538 99.4893 34.6871C99.7219 33.8822 99.8743 32.9084 99.2327 32.2485C98.6151 31.6127 97.6606 31.4437 96.8024 31.5081C96.7944 31.5081 96.7944 31.5081 96.7863 31.5081C97.1874 30.8964 97.6365 30.0755 97.5483 29.3914C97.5162 29.1178 97.3959 28.9005 97.2195 28.7717C97.5964 28.1923 97.8932 27.5484 98.1419 26.9529C98.591 25.8825 99.0161 24.6351 98.8798 23.452C98.7193 22.0919 97.3478 20.7961 96.1126 21.4802C96.2971 20.8605 96.281 20.2328 96.0404 19.5889C96.3372 19.1946 96.6259 18.8002 96.9067 18.4059C97.7729 17.2228 98.5188 15.9271 98.6953 14.4462C98.8156 13.4644 98.7193 12.0077 97.797 11.396C97.0591 10.9051 96.265 11.2673 95.6073 11.7421C95.7597 11.2753 96.3452 10.7119 96.1527 10.2452C95.9522 9.76227 95.4629 10.1405 95.3185 10.1808C95.9361 8.96552 96.273 7.56516 96.2891 6.26138C96.2971 5.71411 96.257 5.07027 95.5993 4.97369C95.2784 4.9254 95.0057 5.05417 94.7892 5.25537C94.8614 4.81273 94.8774 4.36204 94.8774 3.96768C94.8854 3.32384 94.8934 2.53513 94.4042 2.0603C94.348 2.01201 94.2598 2.00396 94.2117 2.0603C94.0834 2.19711 93.9711 2.32588 93.8588 2.45465C93.6663 1.54522 93.177 0 92.3428 0C91.8616 0 91.613 0.603603 91.4124 0.957717C91.3964 0.981861 91.3804 1.01405 91.3643 1.0382C90.9633 1.75447 90.6184 2.51099 90.3457 3.2836C89.7842 4.88516 89.4955 6.5833 89.5035 8.27339C89.5035 9.59326 89.5436 10.8407 89.6318 11.8145C89.295 11.4443 88.9982 11.0661 88.6533 10.9453C87.9876 10.7039 87.6587 11.2351 87.5625 11.8226C87.362 13.0137 87.7149 14.2531 88.3084 15.3718C88.2282 15.3315 88.14 15.3074 88.0437 15.2993C87.5705 15.2671 87.1855 15.6776 87.0652 16.0961C86.8005 17.0055 87.362 18.2127 88.0437 19.0497C87.8913 19.0497 87.7389 19.106 87.6026 19.2348C87.1695 19.6453 87.3539 20.1684 87.6507 20.603C87.2657 20.603 86.8807 20.8042 86.6321 21.1422C86.3273 21.5607 85.7257 23.1059 86.7684 24.4419C85.9102 25.3191 86.9449 26.4056 87.5625 27.146C87.3058 27.1943 87.0893 27.3794 86.9529 27.7657C86.8085 28.1923 86.9369 28.6269 87.1213 29.0132C87.3379 29.4558 87.5946 29.9065 87.8753 30.3331C87.5705 30.2123 87.2016 30.2204 86.8807 30.3733C86.8567 30.3814 86.8406 30.3974 86.8246 30.4135C86.0065 30.8642 85.8541 32.0151 85.9423 32.8521C86.0867 34.2283 86.8567 35.4436 87.8191 36.522C87.4823 36.6588 87.1534 36.9325 86.9609 37.1819C86.8727 37.2866 86.7925 37.4073 86.7203 37.52C86.0947 38.4777 85.8701 39.6688 85.9664 40.7955C86.0867 42.2361 86.7203 43.564 87.5545 44.723C88.1079 45.4956 89.0784 47.1132 90.2093 46.7269C90.6023 47.1132 91.2681 47.4271 91.5568 47.4673C92.1343 47.5398 92.8241 47.242 93.169 46.7511C93.7705 46.9845 95.4228 45.9945 95.6715 45.8094C97.2756 44.6103 98.4306 42.8478 99.1926 41.0128C99.7941 39.5078 100.219 37.5924 99.0562 36.2162Z" fill="#97C941"/>
<path opacity="0.3" d="M99.0562 36.2162C99.0081 36.1599 98.96 36.1116 98.9118 36.0633C99.1605 35.6206 99.353 35.1538 99.4893 34.6871C99.7219 33.8823 99.8743 32.9084 99.2327 32.2485C98.6151 31.6127 97.6606 31.4437 96.8024 31.5081C96.7944 31.5081 96.7944 31.5081 96.7863 31.5081C97.1874 30.8964 97.6365 30.0755 97.5483 29.3914C97.5162 29.1178 97.3959 28.9005 97.2195 28.7717C97.5964 28.1923 97.8932 27.5484 98.1419 26.9529C98.591 25.8825 99.0161 24.6351 98.8798 23.452C98.7193 22.0919 97.3478 20.7961 96.1126 21.4802C96.2971 20.8605 96.281 20.2328 96.0404 19.5889C96.3372 19.1946 96.6259 18.8002 96.9067 18.4059C97.7729 17.2228 98.5188 15.9271 98.6953 14.4462C98.8156 13.4644 98.7193 12.0077 97.797 11.396C97.0591 10.9051 96.265 11.2673 95.6073 11.7421C95.7597 11.2753 96.3452 10.7119 96.1527 10.2452C95.9522 9.76227 95.4629 10.1405 95.3185 10.1808C95.9361 8.96552 96.273 7.56516 96.2891 6.26138C96.2971 5.71411 96.257 5.07027 95.5993 4.97369C95.2784 4.9254 95.0057 5.05417 94.7892 5.25537C94.8614 4.81273 94.8774 4.36204 94.8774 3.96768C94.8854 3.32384 94.8934 2.53513 94.4042 2.0603C94.348 2.01201 94.2598 2.00396 94.2117 2.0603C94.0834 2.19712 93.9711 2.32588 93.8588 2.45465C93.6663 1.54522 93.177 0 92.3428 0C91.8616 0 91.613 0.603603 91.4124 0.957717C91.3964 0.981861 91.3804 1.01405 91.3643 1.0382C91.9418 0.949669 92.4632 1.33597 92.784 2.12468C93.0888 2.85705 93.0968 3.79063 92.9364 4.69201C93.3134 4.65982 93.6984 5.08636 93.7625 5.48072C93.8508 6.01189 93.7064 6.74426 93.4176 7.34786C93.8588 7.33981 94.2759 7.75831 94.34 8.23315C94.4603 9.01381 94.0753 9.98762 93.6021 10.8166C93.6502 10.8327 93.6984 10.8488 93.7385 10.881C94.0433 11.1063 93.9149 11.5328 93.7866 11.8789C94.4443 11.9111 94.5486 12.8769 94.4282 13.4644C94.332 13.9473 94.1395 14.4704 93.8828 14.9774C94.1074 14.8808 94.3561 14.8486 94.5887 14.9613C95.0619 15.1867 95.0539 15.742 95.0458 16.2168C95.3426 16.0558 95.5191 15.9673 95.9361 16.2812C96.257 16.5226 96.4655 16.8526 96.4014 17.255C96.3051 17.9069 95.6314 18.5829 95.2464 19.0739C95.0699 19.2912 94.8935 19.5085 94.709 19.7177C94.7972 19.8465 94.8453 20.0316 94.8373 20.1845C94.8132 20.6835 94.6608 21.2146 94.4202 21.6814C94.8052 21.8504 95.0298 22.4379 95.0057 22.8725C94.9817 23.2508 94.8614 23.6854 94.6769 24.0958C95.0859 24.0636 95.6073 24.3131 95.8399 24.5868C96.666 25.5525 96.1046 26.9287 95.7035 27.9911C96.0725 27.983 96.3532 28.4257 96.3773 28.8039C96.4254 29.5122 95.9763 30.4296 95.511 31.0493C95.5913 31.1057 95.6634 31.2103 95.7035 31.3391C95.88 31.8381 95.6394 32.4095 95.3506 32.8521C96.9147 33.4396 96.3051 35.5884 95.479 36.6347C95.11 37.1095 94.2598 37.7292 93.5059 37.858C93.4016 38.4214 92.8401 38.9284 92.3428 39.1135C92.03 39.2262 91.6611 39.2422 91.4044 39.0169C90.7628 39.5803 89.1987 39.4193 88.6694 39.0089C87.5705 38.1638 88.2122 37.1095 89.0463 36.4496C88.2362 35.9908 87.6186 34.3893 87.4903 33.7535C87.378 33.2062 87.4983 32.1036 88.0036 31.7254C87.5464 31.4035 87.1213 30.9367 86.7765 30.4055C85.9583 30.8562 85.8059 32.0071 85.8942 32.8441C86.0385 34.2203 86.8085 35.4355 87.771 36.514C87.4342 36.6508 87.1053 36.9244 86.9128 37.1739C86.8246 37.2785 86.7444 37.3993 86.6722 37.5119C86.0466 38.4696 85.822 39.6607 85.9182 40.7875C86.0385 42.2281 86.6722 43.556 87.5063 44.7149C88.0598 45.4875 89.0303 47.1052 90.1612 46.7189C90.5542 47.1052 91.2199 47.4191 91.5087 47.4593C92.0862 47.5317 92.776 47.234 93.1209 46.743C93.7224 46.9764 95.3747 45.9865 95.6233 45.8014C97.2275 44.6022 98.3825 42.8397 99.1444 41.0048C99.7941 39.5078 100.219 37.5924 99.0562 36.2162Z" fill="#93B73B"/>
<path opacity="0.3" d="M85.9423 40.8036C86.0626 42.2442 86.6962 43.5721 87.5304 44.731C88.0838 45.5036 89.0544 47.1213 90.1853 46.735C90.5783 47.1213 91.244 47.4351 91.5328 47.4754C92.1103 47.5478 92.8 47.25 93.1449 46.7591C93.7465 46.9925 95.3988 46.0026 95.6474 45.8175C97.2516 44.6183 98.4065 42.8558 99.1685 41.0209C99.7941 39.5078 100.219 37.6004 99.0562 36.2242C99.0081 36.1679 98.96 36.1196 98.9118 36.0713C99.1605 35.6287 99.353 35.1619 99.4893 34.6951C99.7219 33.8903 99.8743 32.9165 99.2327 32.2565C98.6151 31.6207 97.6606 31.4517 96.8024 31.5161C96.6981 31.6207 96.5939 31.7254 96.4976 31.838C97.043 31.7656 97.5804 31.991 97.7809 32.6107C97.9413 33.1177 97.7649 33.6006 97.4521 34.0191C98.2541 34.349 97.7649 35.7333 97.4521 36.2806C97.2115 36.7071 96.8746 37.0129 96.5377 37.3268C96.8265 37.4475 97.0591 37.7453 97.2195 38.1236C97.6927 39.2583 97.0671 40.5621 96.4735 41.5359C96.0484 42.2361 94.1395 44.3769 92.9524 44.0952C92.8401 44.6264 92.4953 45.1093 92.014 45.3105C91.4526 45.5358 90.7548 45.4634 90.2976 45.0449C90.073 44.8356 89.9366 44.5539 89.9286 44.2642C89.9126 44.2401 89.8885 44.224 89.8484 44.2159C87.0732 43.3387 86.0225 40.2 86.7123 37.5441C86.0706 38.4857 85.8461 39.6768 85.9423 40.8036Z" fill="#93B73B"/>
<path opacity="0.31" d="M94.0433 29.3592C93.931 29.311 93.8107 29.2868 93.6984 29.2788C93.8909 28.9407 94.0112 28.5705 94.0272 28.2969C94.0673 27.645 93.6743 27.2989 93.1931 27.3231C93.3455 26.969 93.4176 26.5585 93.4096 26.2688C93.4016 26.0274 93.3615 25.7537 93.2252 25.5606C93.5861 25.1582 93.7946 24.5626 93.7706 24.0878C93.7545 23.7176 93.6182 23.283 93.2893 23.0737C93.2813 23.0657 93.2653 23.0657 93.2492 23.0576C93.6342 22.4379 93.8187 21.6814 93.57 21.0295C93.4497 20.7156 93.2011 20.4018 92.8642 20.3454C92.9765 20.1523 93.0728 19.9511 93.1449 19.774C93.2733 19.4682 93.2893 19.1382 93.0808 18.8646C92.9444 18.6875 92.7439 18.5749 92.5354 18.5346C93.153 18.0517 93.6342 17.0538 93.5299 16.4421C93.4337 15.8707 92.8642 15.1947 92.3028 15.2993C92.3348 15.0096 92.2867 14.7118 92.006 14.5589C91.9819 14.5428 91.9579 14.5428 91.9338 14.5348C92.2226 14.2772 92.4311 13.8668 92.4872 13.569C92.5594 13.1666 92.375 12.7722 92.022 12.6676C92.0621 12.571 92.0862 12.4664 92.1022 12.3376C92.1103 12.2652 92.0301 12.1847 91.9579 12.1928C91.9258 12.1928 91.8937 12.2008 91.8616 12.2008C92.2386 11.6455 92.4391 10.6556 92.2226 10.1164C92.1664 9.97956 92.0461 9.89104 91.9258 9.85884C92.2306 9.6174 92.4632 9.16671 92.5995 8.85284C92.7599 8.49872 92.9123 7.9756 92.7038 7.60539C92.5755 7.38005 92.3348 7.30761 92.1343 7.33981C92.3108 6.84888 92.2466 6.26942 92.0541 5.79458C91.9178 5.45657 91.4526 4.62762 90.9793 4.66786C90.5382 4.7081 90.4259 5.57729 90.4259 5.89921C90.4259 6.25332 90.5222 6.72816 90.7788 7.01789C90.5141 7.05813 90.2414 7.32371 90.2093 7.58125C90.1692 7.91122 90.3457 8.24119 90.6104 8.46653C90.5623 8.48263 90.5061 8.49872 90.466 8.53092C90.073 8.8126 90.2174 9.25524 90.4419 9.60935C90.2334 9.72203 90.089 9.97152 90.1211 10.2451C90.1612 10.6315 90.482 11.1787 90.8831 11.4443C90.6505 11.4524 90.474 11.6053 90.3778 11.8387C90.2896 12.064 90.3216 12.2894 90.4099 12.4906C90.1612 12.4906 89.9447 12.6193 89.9126 12.9654C89.8805 13.2551 89.9848 13.5529 90.1612 13.8024C89.688 13.5931 89.1265 13.7702 89.0062 14.4462C88.91 15.0257 89.1667 15.7259 89.6078 16.1766C89.5677 16.2248 89.5356 16.2892 89.5196 16.3536C89.5035 16.426 89.5196 16.4985 89.5356 16.5629C89.4233 16.6192 89.3271 16.6997 89.2629 16.7963C89.0784 17.086 89.0544 17.5125 89.1827 17.8586C88.8298 17.931 88.5491 18.2288 88.4688 18.5749C88.3405 19.1141 89.295 20.5144 89.7281 21.0859C89.3591 20.9651 89.319 21.7217 89.4795 22.0677C88.3245 21.9148 88.2443 23.2991 89.0062 24.2809C87.9395 23.8785 87.6507 24.5868 87.6267 24.8604C87.6026 25.1823 87.8432 25.3835 88.0919 25.5284C88.1881 25.5847 88.2924 25.6411 88.3967 25.6974C88.14 25.794 87.9555 25.9871 88.0036 26.3251C88.0357 26.5827 88.6052 27.0253 88.8859 27.2024C88.2362 27.2587 87.8593 27.645 87.9315 28.0716C87.9956 28.4579 88.3485 28.8764 88.7576 29.0776C88.6774 29.1419 88.6052 29.2224 88.5651 29.3029C88.4047 29.5765 88.4368 29.9387 88.6212 30.1882C88.7656 30.3813 88.9822 30.494 89.2148 30.5343C89.1987 30.5584 89.1827 30.5745 89.1747 30.5986C88.9822 30.9286 88.918 31.3632 88.9581 31.7415C88.9982 32.1519 89.2388 32.4497 89.6559 32.498C89.696 32.506 89.7441 32.506 89.7842 32.506C89.696 32.8038 89.688 33.1177 89.7281 33.4396C89.7762 33.8742 89.8564 34.3329 90.2735 34.5502C90.7467 34.7997 91.2681 34.5985 91.5328 34.2203C91.8295 34.6307 92.2546 34.8722 92.7439 34.3893C92.9925 34.1478 93.1209 33.7696 93.153 33.3833C93.1931 33.3833 93.2332 33.3913 93.2653 33.3913C93.7625 33.3833 94.1796 33.0292 94.3561 32.5785C94.5165 32.168 94.4523 31.6127 94.0433 31.3793C94.2759 31.0896 94.4283 30.7435 94.4523 30.4296C94.5325 30.0031 94.4443 29.5443 94.0433 29.3592Z" fill="#CEF275"/>
<path opacity="0.3" d="M94.9095 33.4557C94.8694 33.3994 94.7731 33.4315 94.7892 33.504C94.8293 33.6971 94.8534 33.8903 94.7972 34.0834C94.7571 34.2364 94.6368 34.349 94.5887 34.4939C94.5486 34.349 94.4523 34.2283 94.2839 34.1559C94.1957 34.1237 94.1636 34.2444 94.2277 34.2927C94.4283 34.4456 94.3801 34.7353 94.2598 34.9204C94.1395 35.0894 93.9711 35.186 93.8989 35.3872C93.8748 35.4516 93.947 35.4918 93.9951 35.4838C94.3641 35.4355 94.6368 35.0009 94.6127 34.6307C94.6288 34.6388 94.6528 34.6468 94.6769 34.6388C94.9015 34.5985 95.0057 34.3088 95.0378 34.1156C95.086 33.8822 95.0619 33.6488 94.9095 33.4557Z" fill="#6C9925"/>
<path opacity="0.3" d="M89.7281 35.4033C89.6158 35.2584 89.4634 35.1458 89.4073 34.9607C89.3511 34.7675 89.4153 34.5744 89.4634 34.3812C89.4795 34.3249 89.4153 34.2685 89.3592 34.3007C88.902 34.5905 89.0544 35.5321 89.6399 35.5482C89.7121 35.5562 89.7762 35.4677 89.7281 35.4033Z" fill="#6C9925"/>
<path opacity="0.3" d="M91.3884 35.1619C91.252 35.1136 91.0996 35.1377 90.9633 35.1136C90.8029 35.0814 90.6344 35.009 90.5061 34.9124C90.45 34.8641 90.3457 34.9285 90.3938 35.0009C90.5943 35.2906 91.1077 35.6126 91.4285 35.3148C91.4846 35.2665 91.4526 35.186 91.3884 35.1619Z" fill="#6C9925"/>
<path opacity="0.3" d="M90.4981 36.9325C90.3377 36.8761 90.1853 36.8359 90.081 36.691C89.9767 36.5462 89.9848 36.3772 89.9286 36.2162C89.9126 36.1679 89.8484 36.1438 89.8083 36.184C89.4554 36.5864 89.9928 37.2544 90.458 37.2222C90.6264 37.2142 90.6585 36.9888 90.4981 36.9325Z" fill="#6C9925"/>
<path opacity="0.3" d="M91.0836 31.9266C90.9232 31.7898 90.6986 31.7254 90.5703 31.5483C90.4339 31.3552 90.482 31.1379 90.5863 30.9447C90.6104 30.9045 90.5703 30.8562 90.5222 30.8643C90.3537 30.8965 90.2655 31.0333 90.2254 31.1942C90.1291 31.1218 90.0249 31.0735 89.9687 30.9447C89.8965 30.7757 89.9447 30.5906 90.0088 30.4216C90.0249 30.3653 89.9607 30.325 89.9126 30.3492C89.672 30.486 89.5998 30.7918 89.688 31.0413C89.7602 31.2586 89.9767 31.5081 90.2254 31.4679C90.2334 31.5081 90.2414 31.5403 90.2575 31.5725C90.3778 31.8783 90.7227 32.1359 91.0515 32.0473C91.0996 32.0393 91.1237 31.9588 91.0836 31.9266Z" fill="#6C9925"/>
<path opacity="0.3" d="M92.8642 28.2486C92.8241 28.2245 92.7599 28.2647 92.776 28.313C92.8481 28.5222 92.9364 28.7234 92.9203 28.9488C92.9123 29.0937 92.8481 29.2144 92.8 29.3431C92.7519 29.2546 92.6877 29.1741 92.6155 29.1017C92.5353 29.0212 92.423 29.1419 92.4872 29.2305C92.6316 29.4075 92.6797 29.6329 92.6637 29.8582C92.6476 30.0514 92.5353 30.2123 92.5033 30.4055C92.4872 30.486 92.5594 30.5423 92.6396 30.5101C92.8963 30.3974 92.9524 30.0836 92.9444 29.826C92.9444 29.7616 92.9284 29.6973 92.9203 29.6409C93.3936 29.3995 93.2813 28.4659 92.8642 28.2486Z" fill="#6C9925"/>
<path opacity="0.3" d="M89.4794 25.971C89.4153 25.802 89.295 25.6732 89.2468 25.5042C89.1907 25.3272 89.2629 25.1823 89.3672 25.0455C89.3912 25.0133 89.3591 24.957 89.319 24.957C89.0864 24.9811 88.9741 25.2145 88.9661 25.4318C88.9581 25.7135 89.1345 25.971 89.3912 26.0676C89.4393 26.0837 89.5035 26.0193 89.4794 25.971Z" fill="#6C9925"/>
<path opacity="0.3" d="M89.7602 28.7074C89.6639 28.6108 89.5356 28.5786 89.4794 28.4418C89.4072 28.2647 89.4714 28.0877 89.6078 27.967C89.6719 27.9106 89.5917 27.8301 89.5276 27.8623C89.295 27.967 89.1345 28.2245 89.1987 28.4901C89.2549 28.7074 89.4714 28.9649 89.712 28.9005C89.7922 28.8764 89.8163 28.7718 89.7602 28.7074Z" fill="#6C9925"/>
<path opacity="0.3" d="M94.324 25.5123C94.2839 25.4962 94.2598 25.5525 94.2839 25.5767C94.4042 25.7135 94.4683 25.9067 94.4603 26.0918C94.4523 26.2769 94.34 26.4539 94.3641 26.639C94.3721 26.7276 94.4844 26.8 94.5566 26.7195C94.8453 26.3815 94.7731 25.6572 94.324 25.5123Z" fill="#6C9925"/>
<path opacity="0.3" d="M92.5754 20.9571C92.5353 20.933 92.5033 20.9732 92.5193 21.0135C92.6236 21.2468 92.6637 21.4641 92.5754 21.7136C92.5193 21.8585 92.391 22.0034 92.3428 22.1482C92.3348 22.116 92.3268 22.0758 92.3188 22.0436C92.2787 21.8907 92.1985 21.6895 92.014 21.6975C91.9578 21.6975 91.9258 21.7539 91.9578 21.8022C92.1343 22.1241 91.9899 22.4943 92.1183 22.8162C92.1503 22.8967 92.2867 22.953 92.3348 22.8484C92.399 22.7035 92.399 22.5345 92.3749 22.3655C92.391 22.3736 92.399 22.3816 92.415 22.3736C92.6797 22.2931 92.8241 21.8505 92.8481 21.601C92.8722 21.3515 92.808 21.0778 92.5754 20.9571Z" fill="#6C9925"/>
<path opacity="0.3" d="M88.3485 22.4862C88.2122 22.3333 88.0277 22.2448 87.9154 22.0677C87.7871 21.8585 87.7309 21.617 87.8432 21.3836C87.8592 21.3434 87.8191 21.3032 87.779 21.3192C87.2416 21.5929 87.7871 22.6311 88.3004 22.5828C88.3645 22.5908 88.3886 22.5345 88.3485 22.4862Z" fill="#6C9925"/>
<path opacity="0.3" d="M90.5061 20.3615C90.1291 20.1764 89.8324 19.766 90.0971 19.3555C90.1372 19.2911 90.0489 19.2187 89.9928 19.2751C89.8885 19.3636 89.8163 19.4763 89.7762 19.597C89.688 19.5165 89.5998 19.436 89.5436 19.3233C89.4313 19.1221 89.4474 18.8887 89.4875 18.6715C89.4955 18.6232 89.4393 18.5829 89.4073 18.6232C89.0704 18.9934 89.2308 19.7177 89.7361 19.8384C89.7361 19.9189 89.7522 20.0074 89.7842 20.096C89.9046 20.3937 90.1853 20.5627 90.4981 20.4903C90.5462 20.4662 90.5622 20.3857 90.5061 20.3615Z" fill="#6C9925"/>
<path opacity="0.3" d="M94.0593 16.7641C94.0272 16.7399 93.9871 16.7641 93.9951 16.8043C94.0433 17.0297 94.0994 17.247 94.0593 17.4804C94.0272 17.6816 93.931 17.8425 93.8267 18.0035C93.7545 17.8184 93.6262 17.6494 93.4577 17.5689C93.3936 17.5367 93.3134 17.6252 93.3775 17.6735C93.5299 17.8103 93.6502 17.9793 93.6342 18.1966C93.6262 18.3737 93.5299 18.5186 93.4658 18.6795C93.4497 18.7359 93.5059 18.8002 93.562 18.7761C93.7946 18.6795 93.8828 18.4783 93.8748 18.261C93.9229 18.2771 93.9871 18.2691 94.0272 18.2288C94.3801 17.8747 94.4684 17.1182 94.0593 16.7641Z" fill="#6C9925"/>
<path opacity="0.3" d="M88.9982 20.9571C88.7255 20.7559 88.541 20.4903 88.7576 20.1523C88.8057 20.0718 88.6934 19.9914 88.6293 20.0557C88.4368 20.2328 88.3646 20.4903 88.4448 20.7318C88.517 20.9491 88.7175 21.1261 88.9581 21.11C89.0463 21.102 89.0704 21.0054 88.9982 20.9571Z" fill="#6C9925"/>
<path opacity="0.3" d="M88.8217 13.8829C88.5972 13.6334 88.525 13.0459 88.7175 12.7723C88.7897 12.6676 88.6292 12.555 88.549 12.6354C88.3244 12.8608 88.3164 13.1586 88.3645 13.4563C88.4047 13.7058 88.4688 13.9875 88.7576 14.0197C88.8378 14.0439 88.8618 13.9392 88.8217 13.8829Z" fill="#6C9925"/>
<path d="M88.8939 41.3106C88.7496 41.1979 88.5571 41.1657 88.4448 41.0047C88.3405 40.8438 88.3405 40.5862 88.4127 40.4092C88.4367 40.3528 88.3565 40.3207 88.3164 40.3528C88.2523 40.4092 88.2041 40.4736 88.164 40.546C88.0919 40.4816 88.0116 40.4253 87.9555 40.3528C87.8432 40.1999 87.8352 40.047 87.8913 39.87C87.9154 39.7895 87.8191 39.7492 87.763 39.7975C87.4181 40.0792 87.7309 40.6748 88.0919 40.8196C88.0838 40.9243 88.0999 41.0369 88.156 41.1416C88.2763 41.3749 88.6052 41.6325 88.8699 41.4715C88.926 41.4313 88.9501 41.3508 88.8939 41.3106Z" fill="#71A52D"/>
<path d="M94.1395 40.4575C94.0914 40.3931 94.0112 40.4253 93.9951 40.4978C93.9711 40.715 93.9711 40.9082 93.8588 41.1014C93.7706 41.2543 93.562 41.3508 93.5219 41.5199C93.5059 41.5762 93.538 41.6406 93.6021 41.6567C93.8508 41.7211 94.0593 41.3911 94.1395 41.1979C94.2438 40.9726 94.2839 40.6668 94.1395 40.4575Z" fill="#71A52D"/>
<path d="M95.1822 39.1376C95.118 39.0652 95.0138 39.1457 95.0378 39.2261C95.094 39.4595 95.1421 39.6849 95.102 39.9263C95.0619 40.1356 94.9175 40.3046 94.8854 40.5058C94.8694 40.6185 94.9656 40.6989 95.0699 40.6506C95.3105 40.538 95.3988 40.1758 95.4148 39.9344C95.4308 39.6446 95.3667 39.3549 95.1822 39.1376Z" fill="#71A52D"/>
<path d="M91.8696 42.22C91.8295 42.1557 91.7493 42.2039 91.7573 42.2683C91.7894 42.4615 91.7092 42.6385 91.5969 42.7834C91.5167 42.888 91.4044 42.9202 91.3162 43.0087C91.2921 43.0329 91.2761 43.0812 91.2921 43.1134L91.3002 43.1295C91.3242 43.1939 91.3723 43.226 91.4365 43.2341C91.6611 43.2663 91.8135 43.0007 91.8937 42.8317C91.9739 42.6385 91.9739 42.4212 91.8696 42.22Z" fill="#71A52D"/>
<path d="M96.4976 22.3333C96.4415 22.3333 96.4014 22.4138 96.4495 22.454C96.6259 22.5989 96.7864 22.7196 96.8826 22.9369C96.9708 23.1301 96.9387 23.3393 96.9789 23.5486C96.9869 23.5969 97.0591 23.613 97.0911 23.5808C97.4601 23.1945 96.9869 22.3736 96.4976 22.3333Z" fill="#71A52D"/>
<path d="M97.6606 23.6129C97.6205 23.5566 97.5403 23.6049 97.5403 23.6612C97.5242 23.8463 97.5483 24.0234 97.4841 24.2085C97.42 24.3695 97.2515 24.4902 97.2275 24.6592C97.2114 24.7316 97.2596 24.8282 97.3478 24.8201C97.7889 24.7558 97.9012 23.9188 97.6606 23.6129Z" fill="#71A52D"/>
<path d="M96.6179 12.5469C96.5377 12.3537 96.3131 12.1284 96.0966 12.2491C96.0565 12.2732 96.0484 12.3296 96.0805 12.3537C96.1447 12.4181 96.2249 12.4583 96.281 12.5308C96.3613 12.6354 96.3853 12.7722 96.4014 12.901C96.4254 13.1102 96.4174 13.3114 96.5297 13.4965C96.5698 13.5609 96.658 13.5448 96.6821 13.4804C96.7864 13.2149 96.7302 12.7964 96.6179 12.5469Z" fill="#71A52D"/>
<path d="M97.4842 13.2551C97.428 13.1988 97.3157 13.2551 97.3478 13.3356C97.444 13.577 97.444 13.8024 97.3318 14.0358C97.2435 14.237 97.0671 14.3979 97.0189 14.6072C96.9949 14.7118 97.1072 14.8164 97.2114 14.7521C97.6526 14.4865 97.8852 13.6495 97.4842 13.2551Z" fill="#71A52D"/>
<path d="M96.6981 14.8808C96.666 14.6555 96.5537 14.4543 96.3372 14.3657C96.3051 14.3496 96.265 14.3979 96.2891 14.4301C96.5217 14.7842 96.3773 15.0981 96.265 15.4603C96.2169 15.6132 96.2891 15.8546 96.4896 15.7098C96.6821 15.573 96.7222 15.0981 96.6981 14.8808Z" fill="#71A52D"/>
<path d="M95.5431 7.05816C95.5191 6.83282 95.4068 6.63966 95.2384 6.4948C95.1581 6.42237 95.0138 6.51089 95.0779 6.61552C95.1662 6.75234 95.2063 6.92134 95.1983 7.0823C95.1902 7.23522 95.11 7.37203 95.11 7.5169C95.11 7.62957 95.2223 7.67786 95.3186 7.63762C95.5191 7.54104 95.5672 7.25936 95.5431 7.05816Z" fill="#71A52D"/>
<path d="M103.925 63.5634L106.524 65.0523L108.785 63.7485L106.187 62.2516L103.925 63.5634Z" fill="#C6B7B8"/>
<path d="M106.524 65.0523V65.672L108.785 64.3602V63.7485L106.524 65.0523Z" fill="#AD9E9F"/>
<path d="M103.925 63.5634L106.524 65.0523V65.672L103.925 64.1751V63.5634Z" fill="#9B8A8C"/>
<path d="M106.355 36.7152C106.636 36.7152 106.868 36.9486 106.868 37.2303V37.5522V39.0652V63.5715C106.868 63.7244 106.636 63.8452 106.355 63.8452C106.074 63.8452 105.842 63.7244 105.842 63.5715V39.0572V37.5442V37.2222C105.842 36.9406 106.074 36.7152 106.355 36.7152Z" fill="#AD9E9F"/>
<path d="M103.251 31.323L103.692 31.0816C103.7 31.0735 103.708 31.0735 103.716 31.0655L103.724 31.0574V31.0655C103.861 31.0091 104.037 31.0172 104.222 31.1298L108.609 33.673C109.074 33.9386 109.451 34.671 109.451 35.2907V43.717C109.451 44.0389 109.347 44.2642 109.186 44.3769L108.737 44.6264L108.633 44.3689C108.625 44.3608 108.617 44.3608 108.609 44.3528L104.222 41.8096C103.756 41.544 103.379 40.8116 103.379 40.1919V31.7656C103.379 31.7334 103.387 31.7013 103.387 31.6691L103.251 31.323Z" fill="#3D79C2"/>
<path d="M103.797 42.051L108.184 44.5942C108.649 44.8598 109.026 44.5781 109.026 43.9504V35.5241C109.026 34.9044 108.649 34.172 108.184 33.9064L103.797 31.3632C103.331 31.0977 102.954 31.3793 102.954 32.0071V40.4334C102.954 41.0531 103.339 41.7774 103.797 42.051Z" fill="#418BD6"/>
<path d="M108.224 44.1194C108.312 44.1194 108.392 44.0952 108.465 44.055C108.657 43.9423 108.769 43.6928 108.769 43.3629V35.5724C108.769 34.9929 108.416 34.3088 107.975 34.0593L104.109 31.822C103.901 31.7012 103.692 31.6852 103.524 31.7817C103.331 31.8944 103.219 32.1439 103.219 32.4739V40.2644C103.219 40.8438 103.572 41.5279 104.013 41.7774L107.879 44.0147C107.991 44.0872 108.112 44.1194 108.224 44.1194ZM103.764 31.9185C103.837 31.9185 103.917 31.9427 104.005 31.991L107.871 34.2283C108.248 34.4456 108.569 35.0573 108.569 35.5724V43.3629C108.569 43.6123 108.497 43.8055 108.36 43.8779C108.256 43.9423 108.12 43.9262 107.975 43.8377L104.109 41.6003C103.732 41.383 103.412 40.7714 103.412 40.2563V32.4658C103.412 32.2163 103.484 32.0232 103.62 31.9507C103.668 31.9266 103.716 31.9185 103.764 31.9185Z" fill="white"/>
<path d="M107.462 41.4635L104.518 39.7573C104.19 39.5722 103.925 39.0652 103.925 38.6306V33.9225C103.925 33.4879 104.19 33.2867 104.518 33.4718L107.462 35.178C107.791 35.3631 108.056 35.8701 108.056 36.3047V41.0128C108.056 41.4555 107.791 41.6567 107.462 41.4635Z" fill="white"/>
<path d="M107.695 39.6044L104.286 37.6326V34.7354L107.695 36.7152V39.6044Z" fill="#418BD6"/>
<path d="M106.804 35.7253L105.184 34.7836V34.3329L106.804 35.2746V35.7253Z" fill="#418BD6"/>
<path d="M104.558 40.5299C104.406 40.4414 104.286 40.208 104.286 40.0068V39.3469C104.286 39.1457 104.406 39.0491 104.558 39.1376C104.711 39.2262 104.831 39.4595 104.831 39.6607V40.3207C104.831 40.5219 104.711 40.6185 104.558 40.5299Z" fill="white"/>
<path d="M107.43 42.1959C107.278 42.1074 107.157 41.874 107.157 41.6728V41.0128C107.157 40.8116 107.278 40.7151 107.43 40.8036C107.582 40.8921 107.703 41.1255 107.703 41.3267V41.9866C107.703 42.1878 107.574 42.2844 107.43 42.1959Z" fill="white"/>
<path d="M104.831 39.033C104.831 39.2342 104.711 39.3227 104.558 39.2342C104.406 39.1457 104.286 38.9123 104.286 38.7191C104.286 38.5179 104.406 38.4294 104.558 38.5179C104.703 38.5984 104.831 38.8318 104.831 39.033Z" fill="#418BD6"/>
<path d="M107.695 40.6909C107.695 40.8921 107.574 40.9806 107.422 40.9001C107.269 40.8116 107.149 40.5782 107.149 40.385C107.149 40.1838 107.269 40.0953 107.422 40.1758C107.574 40.2643 107.695 40.4897 107.695 40.6909Z" fill="#418BD6"/>
<path d="M65.2167 55.282L17.2687 83.0558V84.5768L65.2167 56.8031V55.282Z" fill="#3A9B6A"/>
<path d="M84.7553 66.4607L65.4493 55.282V56.8031L84.7553 67.9818V66.4607Z" fill="#3A9B6A"/>
<path opacity="0.5" d="M65.2167 22.6391L17.2687 50.4129V83.0799L65.2167 55.3061V22.6391Z" fill="#5DC18F"/>
<path opacity="0.5" d="M84.7553 33.8178L65.4493 22.6391V55.3061L84.7553 66.4848V33.8178Z" fill="#5DC18F"/>
<path d="M64.4948 20.9973V60.7224C64.4948 61.0041 64.928 61.2375 65.4573 61.2375C65.9867 61.2375 66.4198 61.0041 66.4198 60.7224V20.9973H64.4948Z" fill="#AD9E9F"/>
<path d="M68.0079 59.3301V66.5331C68.0079 66.678 68.2245 66.7907 68.4892 66.7907C68.7539 66.7907 68.9704 66.678 68.9704 66.5331V59.3301H68.0079Z" fill="#AD9E9F"/>
<path d="M38.2349 69.5511V76.7541C38.2349 76.899 38.4515 77.0117 38.7162 77.0117C38.9809 77.0117 39.1974 76.899 39.1974 76.7541V69.5511H38.2349Z" fill="#AD9E9F"/>
<path d="M44.7798 73.9695L69.4436 59.6843L62.5217 55.6763L37.8579 69.9616L44.7798 73.9695Z" fill="#FF9E03"/>
<path d="M44.7798 72.7463L69.4436 58.4529L62.5217 54.445L37.8579 68.7303L44.7798 72.7463Z" fill="#7D6D70"/>
<path d="M69.4436 58.4529V59.6843L44.7798 73.9696V72.7463L69.4436 58.4529Z" fill="#4D4143"/>
<path d="M37.8579 68.7303V69.9616L44.7798 73.9696V72.7463L37.8579 68.7303Z" fill="#604F53"/>
<path d="M26.3081 83.5226V90.7256C26.3081 90.8704 26.5246 90.9831 26.7893 90.9831C27.054 90.9831 27.2706 90.8704 27.2706 90.7256V83.5226H26.3081Z" fill="#AD9E9F"/>
<path d="M49.0549 70.3801V77.5831C49.0549 77.728 49.2715 77.8407 49.5361 77.8407C49.8008 77.8407 50.0174 77.728 50.0174 77.5831V70.3801H49.0549Z" fill="#AD9E9F"/>
<path d="M20.2444 80.0297V87.2327C20.2444 87.3776 20.4609 87.4903 20.7256 87.4903C20.9903 87.4903 21.2069 87.3776 21.2069 87.2327V80.0297H20.2444Z" fill="#AD9E9F"/>
<path d="M26.7893 84.4481L51.4531 70.1628L44.5312 66.1469L19.8674 80.4402L26.7893 84.4481Z" fill="#FF9E03"/>
<path d="M26.7893 83.2168L69.4436 58.4529L62.5217 54.445L19.8674 79.2088L26.7893 83.2168Z" fill="#7D6D70"/>
<path d="M69.4436 58.4529V59.6843L26.7893 84.4481V83.2168L69.4436 58.4529Z" fill="#4D4143"/>
<path d="M19.8674 79.2088V80.4402L26.7893 84.4481V83.2167L19.8674 79.2088Z" fill="#604F53"/>
<path d="M83.7607 31.7495V71.4746C83.7607 71.7563 84.1938 71.9897 84.7232 71.9897C85.2525 71.9897 85.6857 71.7563 85.6857 71.4746V31.7495H83.7607Z" fill="#AD9E9F"/>
<path d="M16.3944 48.8113V88.5365C16.3944 88.8181 16.8275 89.0515 17.3569 89.0515C17.8863 89.0515 18.3194 88.8181 18.3194 88.5365V48.8113H16.3944Z" fill="#AD9E9F"/>
<path d="M34.3048 72.4565C33.7192 71.7965 33.0776 70.9515 32.4199 70.5249C32.091 70.0662 31.0644 68.6417 30.6072 67.523C30.1259 66.3641 29.2838 65.5432 29.2838 65.5432C29.2838 65.5432 28.3774 66.4526 28.4175 66.5251C28.4576 66.5975 29.4041 68.6337 29.8773 69.4063C30.3505 70.1789 31.0724 71.4424 31.5055 71.9897C31.8504 72.0943 32.837 72.7462 33.5348 72.8186C34.1684 72.9635 34.1524 72.8669 34.3048 72.4565Z" fill="#FFB7A2"/>
<path d="M28.8025 65.6961C28.8025 65.6961 29.4281 65.4305 29.9735 66.0261C30.5189 66.6216 31.0483 68.2795 31.1766 68.6417C30.9841 68.6658 30.4869 69.0039 30.1741 69.2614C29.8612 69.5109 29.6768 69.5028 29.6768 69.5028L27.4149 66.4043L28.8025 65.6961Z" fill="#88B531"/>
<path d="M31.0403 68.2393C31.0403 68.2393 30.3345 68.4083 30.0939 68.7865C29.8532 69.1648 29.8131 69.3016 29.8131 69.3016L30.0939 69.6477C30.0939 69.6477 30.3586 69.2775 30.6313 69.0441C30.904 68.8107 31.2408 68.7221 31.2408 68.7221L31.0403 68.2393Z" fill="white"/>
<path d="M35.1149 89.1561C35.4196 89.4137 35.7565 89.7034 36.0693 89.9529C36.4864 90.2909 36.9757 90.645 37.4248 90.9508C37.9702 91.3211 38.0825 91.8442 37.2724 91.9086C35.9731 92.0132 35.5961 91.5062 34.9384 91.1279C34.8502 91.0716 34.7299 91.2486 34.385 91.1601C33.9518 91.0474 33.8877 90.9911 33.8315 90.5726C33.7995 90.307 33.7674 89.7597 33.8476 89.47C33.8396 89.462 33.8396 89.462 33.8315 89.462C33.7674 89.3976 34.7138 88.8101 35.1149 89.1561Z" fill="#30282A"/>
<path d="M38.4515 87.1522C38.7563 87.4097 39.0931 87.6994 39.4059 87.9489C39.823 88.2869 40.3123 88.641 40.7614 88.9469C41.3069 89.3171 41.4191 89.8402 40.609 89.9046C39.3097 90.0092 38.9327 89.5022 38.275 89.1239C38.1868 89.0676 38.0665 89.2447 37.7216 89.1561C37.2885 89.0435 37.2243 88.9871 37.1681 88.5686C37.1361 88.303 37.104 87.7558 37.1842 87.466C37.1762 87.466 37.1762 87.458 37.1681 87.458C37.096 87.3936 38.0424 86.8061 38.4515 87.1522Z" fill="#30282A"/>
<path d="M29.7891 72.9796C29.8933 73.06 29.5404 72.8508 30.1901 73.5349C30.6312 73.9936 31.1366 74.903 31.1366 74.903C31.1366 74.903 34.1764 76.3839 35.3394 77.0519C36.4944 77.7198 36.5746 78.0337 36.8152 78.8707C37.0398 79.6433 38.7803 87.1441 38.7803 87.1441C38.7803 87.1441 38.2349 87.5546 37.8579 87.5948C37.481 87.635 37.1361 87.7397 37.1361 87.7397C37.1361 87.7397 34.802 83.949 34.2807 82.4923C33.7593 81.0356 34.0722 80.0699 34.0641 80.1101C34.0561 80.1504 30.6874 78.7259 29.5324 77.245C28.3774 75.7642 28.0245 74.1868 28.0245 74.1868L29.7891 72.9796Z" fill="#30282A"/>
<path d="M35.3314 89.2286C35.1951 87.9409 34.802 84.6009 34.7379 83.2489C34.6416 81.3254 35.2512 80.6493 33.631 79.1926C32.0108 77.7359 30.535 76.6817 30.535 76.6817C30.535 76.6817 29.7169 73.0681 28.3774 73.4705C27.038 73.8729 24.9125 74.557 24.9125 74.557C24.9125 74.557 24.5515 75.8125 24.9125 77.6233C25.2333 79.2168 26.4284 79.8123 28.0406 80.1021C28.9629 81.2127 31.8905 81.8726 31.8905 81.8726C31.8905 81.8726 31.7461 83.9007 32.3798 85.9208C32.7407 87.0636 33.3262 88.7779 33.615 89.6229C33.7593 89.6149 34.5534 89.6953 35.3314 89.2286Z" fill="#4D4143"/>
<path d="M29.3158 66.3561C28.5057 65.5674 28.1528 65.5432 27.3828 66.1388C26.4364 66.8711 25.2814 67.7484 24.8804 68.183C24.2066 68.9234 24.3109 69.9053 24.4071 71.5712C24.4232 71.8207 24.3831 72.6979 24.335 72.9635C24.1425 73.9051 24.3109 74.0339 24.5676 74.219C24.4633 74.3558 24.4071 74.9031 24.6879 75.0158C25.9712 75.555 29.4522 75.3538 30.535 73.7281C30.3906 73.2693 30.1741 73.0923 29.7891 72.6255C29.9174 72.2875 29.9174 71.708 29.9254 71.201C30.6072 70.9435 31.321 70.4445 30.9761 69.6236C30.8077 69.2212 30.1099 68.3278 29.9495 67.853C29.6367 66.9999 29.5484 66.5814 29.3158 66.3561Z" fill="#97C941"/>
<path d="M30.15 73.4142C30.15 73.4142 30.3666 71.9092 30.4708 71.201C30.5831 70.4283 30.8157 70.2352 31.2408 70.0018C31.6579 69.7684 32.2594 69.6638 32.5642 70.2754C32.869 70.8871 33.2219 71.9736 33.2219 71.9736L32.861 72.1426C32.861 72.1426 32.6846 71.2412 32.46 70.7986C32.2755 70.4283 32.1953 70.3157 32.1311 70.2674C31.8664 70.0823 31.5215 70.2593 31.2889 70.4203C31.0002 70.6295 30.928 70.8388 30.8558 71.378C30.7516 72.0701 30.7275 72.9635 30.6152 73.213C30.5109 73.4625 30.15 73.4142 30.15 73.4142Z" fill="#4D4143"/>
<path d="M31.714 72.207C29.757 73.1003 29.2196 73.4142 28.602 74.9594C27.8721 76.7782 28.0405 77.8406 29.4442 78.7098C30.8478 79.579 31.8343 79.418 33.5909 78.4603C34.786 77.8084 36.0613 77.1645 36.4302 76.1666C36.5987 75.6998 36.5746 75.1606 36.2538 74.5006C35.3715 72.7059 34.9304 72.0701 34.0401 71.7724C33.3102 71.5309 32.7407 71.7321 31.714 72.207Z" fill="#FF4848"/>
<path d="M29.8773 73.3257C29.8773 73.3257 30.7034 72.883 31.4654 72.545C32.2193 72.215 33.1417 71.8046 33.5909 71.7885C34.0401 71.7724 34.7138 72.2472 34.7138 72.2472C34.7138 72.2472 33.623 72.537 32.8289 72.9233C32.0268 73.3096 30.9761 73.8407 30.9761 73.8407C30.9761 73.8407 30.0938 73.374 29.8773 73.3257Z" fill="#F73131"/>
<path d="M32.1391 74.5409C32.1391 74.5409 30.8237 72.6255 31.3772 71.2975C31.9306 69.9616 33.1257 70.0501 33.7353 70.8871C34.3448 71.7241 34.5614 72.4082 34.8903 73.0762C34.6978 73.1566 34.4491 73.2854 34.4491 73.2854C34.4491 73.2854 33.623 71.6195 33.4144 71.201C33.2941 70.9515 32.9573 70.7825 32.7407 70.7422C32.3798 70.6778 31.9146 71.0159 31.7541 71.4746C31.4975 72.207 32.2354 73.5832 32.5241 74.3397C32.3557 74.4363 32.1391 74.5409 32.1391 74.5409Z" fill="#4D4143"/>
<path d="M32.6044 74.1143C32.3557 74.2109 31.8504 74.4684 31.8504 74.4684C31.8504 74.4684 32.0269 75.0238 32.46 74.8306C32.8851 74.6374 32.7327 74.3075 32.6044 74.1143Z" fill="white"/>
<path d="M34.9705 72.8911C34.7218 72.9876 34.2165 73.2452 34.2165 73.2452C34.2165 73.2452 34.393 73.8005 34.8261 73.6073C35.2432 73.4142 35.0908 73.0923 34.9705 72.8911Z" fill="white"/>
<path d="M29.4362 74.0419C29.0672 74.4926 28.6581 75.0318 28.4817 76.1746C28.3052 77.3336 28.4496 77.7601 29.5645 78.4683C30.2623 78.911 31.5617 79.2168 31.706 78.4683C31.8905 77.4704 31.4574 75.3779 30.9681 74.557C30.3906 73.5751 29.9495 73.4142 29.4362 74.0419Z" fill="#F73131"/>
<path d="M31.7542 75.4423L33.5107 74.6375C33.5107 74.6375 34.1203 75.7078 34.2085 76.3758C34.2967 77.0519 34.1203 77.4623 33.3904 77.7762C32.9332 77.9693 32.6284 77.583 32.3557 76.8346C32.083 76.0861 31.7542 75.4423 31.7542 75.4423Z" fill="#F73131"/>
<path d="M33.9518 74.4121L35.4918 73.5269C35.4918 73.5269 36.1495 74.6536 36.2377 75.2813C36.3179 75.9091 36.1575 76.2873 35.4758 76.5851C35.0507 76.7702 34.7699 76.4081 34.5133 75.7079C34.2566 75.0157 33.9518 74.4121 33.9518 74.4121Z" fill="#F73131"/>
<path d="M28.8827 66.7021C28.6822 66.694 28.1448 66.5089 28.1689 65.5432C28.1769 65.2776 26.9016 64.7223 26.9016 64.7625C27.0299 65.6156 27.0299 66.6055 26.7011 67.1045C27.3427 67.6196 28.1047 69.0682 29.0351 68.7302C29.5484 68.5451 29.4121 67.7322 28.8827 66.7021Z" fill="#FFB7A2"/>
<path d="M29.2116 66.0099C29.2116 66.0099 29.7169 67.0481 29.8853 67.3942C30.0538 67.7322 30.3826 68.3761 30.3826 68.3761C30.3826 68.3761 29.9896 68.2473 29.8051 68.368C29.6287 68.4887 29.388 68.8187 29.2276 68.8831C29.0672 68.9475 28.8507 68.9314 28.8507 68.9314L28.6742 68.4968C28.6742 68.4968 29.003 68.3519 28.9389 67.7725C28.8747 67.193 28.6983 66.4204 28.6983 66.4204L29.2116 66.0099Z" fill="white"/>
<path d="M28.7223 61.9296C27.8962 61.8572 28.1929 63.0966 27.5192 63.4748C27.1342 63.6358 26.7813 63.8692 26.4524 64.1509C26.4284 64.175 26.4123 64.2153 26.4204 64.2475C26.7492 65.2776 27.2465 66.356 28.4977 66.6619C29.5244 66.9194 29.9254 65.7685 29.9976 65.0281C30.0778 64.175 29.2918 61.9779 28.7223 61.9296Z" fill="#FFB19C"/>
<path d="M27.5032 64.9396C27.5032 64.9396 27.2224 64.3199 26.8455 64.7062C26.4685 65.1005 27.1583 65.672 27.1583 65.672L27.5032 64.9396Z" fill="#FFB19C"/>
<path d="M28.6341 72.2552C28.6341 72.2552 27.6395 72.0782 27.1342 72.207C26.6289 72.3357 26.2118 72.5852 26.2118 72.5852C26.2118 72.5852 26.9497 72.5933 27.439 72.545C27.9202 72.4967 28.6341 72.2552 28.6341 72.2552Z" fill="#88B531"/>
<path d="M28.3694 73.4786C28.3052 73.4866 27.2305 73.5993 26.653 73.6395C26.0674 73.6798 25.8429 73.6798 25.8429 73.6798C25.8429 73.6798 26.3642 73.9776 27.038 73.881C27.6957 73.7925 28.3694 73.4786 28.3694 73.4786Z" fill="#AFC010"/>
<path d="M26.9337 71.0481C26.9337 71.0481 27.062 72.6738 27.431 73.881C28.4977 74.4202 29.781 75.1767 29.781 75.1767L30.1821 76.4483C30.1821 76.4483 28.4817 76.3115 27.2465 75.6757C26.5086 75.2894 26.3802 75.2894 26.0995 74.7019C25.498 73.4464 24.9044 71.8207 24.9044 71.8207C24.9044 71.8207 26.1156 70.8388 26.9337 71.0481Z" fill="#FFB19C"/>
<path d="M25.113 67.9657C26.0674 67.8932 26.685 68.8831 26.8936 69.9777C27.1021 71.0722 27.0059 72.046 27.0059 72.046C27.0059 72.046 26.1797 72.2794 25.3536 72.706C24.5114 71.7804 24.0141 70.6859 24.0141 69.7121C24.0141 68.7383 24.5275 68.0059 25.113 67.9657Z" fill="#88B531"/>
<path d="M26.9658 66.0341C26.9658 66.0341 27.0139 66.4043 27.3748 66.9033C27.7357 67.4023 28.3934 68.0139 28.7464 68.2473C29.2677 68.5853 29.1795 69.2372 29.1795 69.2372C29.1795 69.2372 28.9549 68.8509 28.7464 68.9475C28.5298 69.0441 28.4416 69.2614 28.209 69.5189C27.9764 69.2372 27.848 68.9797 27.3588 68.5853C26.9658 68.2715 26.2278 67.5713 26.3241 66.9194C26.4123 66.2675 26.9658 66.0341 26.9658 66.0341Z" fill="white"/>
<path d="M27.0219 71.7321C27.0219 71.7321 26.5326 71.716 25.9792 71.9494C25.4258 72.1828 25.137 72.4564 25.137 72.4564L25.3536 72.9796C25.3536 72.9796 25.9712 72.5852 26.3081 72.4645C26.6449 72.3438 27.1101 72.3196 27.1101 72.3196L27.0219 71.7321Z" fill="white"/>
<path d="M35.0747 72.4645C34.9544 72.8669 35.0266 73.7039 35.4758 73.9132C35.9249 74.1224 36.2137 73.7683 35.9089 73.0601C35.6041 72.3438 35.0747 72.4645 35.0747 72.4645Z" fill="#FFB7A2"/>
<path d="M29.0351 61.6399C28.1368 61.2536 26.7813 61.2536 26.6369 62.2999C26.0835 62.485 25.6343 62.9276 25.4739 63.5071C25.3696 63.8853 25.506 64.2314 25.4659 64.6096C25.4017 65.2535 24.8643 65.6639 24.6718 66.2514C24.1184 67.9013 25.9712 68.4083 26.9978 69.1809C27.5433 68.5934 28.0405 67.7403 27.7438 66.9838C27.5914 66.6056 27.2946 66.1549 26.9257 65.8732C27.1101 65.503 27.046 65.0362 26.8695 64.6579C27.7438 64.5935 28.5378 64.167 28.7223 63.2093C29.2757 63.3461 29.757 63.9578 29.9014 64.3602C30.7115 62.9678 30.2222 62.1469 29.0351 61.6399Z" fill="#30282A"/>
<path d="M29.3399 75.1928L29.5324 75.0238C29.5324 75.0238 30.1981 75.1043 30.6152 74.9272C31.0403 74.7501 31.3611 74.4604 31.5857 74.4121C31.8103 74.3638 31.8745 74.5409 31.5857 74.7984C31.297 75.056 30.9922 75.4262 30.92 75.4584C30.8558 75.4986 31.3932 75.6113 32.0108 75.8286C32.6284 76.0539 33.0535 76.6092 32.2113 76.899C31.3692 77.1887 30.0297 76.5931 29.7008 76.3758C29.38 76.1746 29.3399 75.1928 29.3399 75.1928Z" fill="#FFB19C"/>
<path d="M35.6602 59.5555V99.2806C35.6602 99.5623 36.0934 99.7957 36.6227 99.7957C37.1521 99.7957 37.5852 99.5623 37.5852 99.2806V59.5555H35.6602Z" fill="#AD9E9F"/>
<path d="M43.1677 64.8752L13.9802 47.9663L66.4679 17.6332L95.6635 34.5422L43.1677 64.8752Z" fill="#5DC18F"/>
<path opacity="0.5" d="M90.3938 37.5843L61.1983 20.6754L66.4679 17.6332L95.6635 34.5422L90.3938 37.5843Z" fill="#3A9B6A"/>
<path opacity="0.5" d="M79.9187 43.6445L50.7232 26.7356L55.9928 23.6854L85.1803 40.6023L79.9187 43.6445Z" fill="#3A9B6A"/>
<path opacity="0.5" d="M69.4356 49.6966L40.2401 32.7877L45.5097 29.7455L74.7052 46.6545L69.4356 49.6966Z" fill="#3A9B6A"/>
<path opacity="0.5" d="M58.9605 55.7568L29.765 38.8398L35.0346 35.7977L64.2221 52.7146L58.9605 55.7568Z" fill="#3A9B6A"/>
<path opacity="0.5" d="M48.3812 61.8653L19.1856 44.9563L24.4553 41.9061L53.6508 58.8231L48.3812 61.8653Z" fill="#3A9B6A"/>
<path d="M95.6635 34.5422V35.7091L43.1677 66.0422V64.8752L95.6635 34.5422Z" fill="#3A9B6A"/>
<path d="M13.9802 47.9663V49.1333L43.1677 66.0422V64.8752L13.9802 47.9663Z" fill="#298454"/>
<path d="M60.1636 91.9408C58.8643 92.6973 56.2736 94.2103 55.4234 94.7174C54.0598 95.5383 54.4448 98.3229 54.4448 100.536C54.4448 102.226 57.204 103.128 57.204 100.536C57.204 98.4436 57.204 95.8361 57.204 95.8361L60.5005 93.9206C60.9577 93.655 61.2464 93.1641 61.2464 92.6249V92.6168L60.1636 91.9408Z" fill="#C8C8C8"/>
<path d="M55.4234 94.7174C55.4234 94.7174 55.263 94.9749 55.8164 95.2164C56.3618 95.4578 56.8029 95.2164 56.8029 95.2164L61.2545 92.6249L63.2596 90.13L55.4234 94.7174Z" fill="#ECECEC"/>
<path d="M104.51 119.103L99.3049 116.182C99.3049 116.182 100.909 114.387 103.091 115.24C104.703 115.884 104.51 119.103 104.51 119.103Z" fill="#E82323"/>
<path d="M149.475 93.1722L144.285 90.2668C144.285 90.2668 145.889 88.4721 148.071 89.3252C149.683 89.9691 149.475 93.1722 149.475 93.1722Z" fill="#E82323"/>
<path d="M159.749 87.2569L154.632 84.3515C154.632 84.3515 156.236 82.5568 158.418 83.4099C160.03 84.0538 159.749 87.2569 159.749 87.2569Z" fill="#E82323"/>
<path d="M149.579 91.3695C149.579 88.6895 151.199 85.5749 153.204 84.4159C153.71 84.1262 154.311 83.9733 154.792 83.9733C155.169 83.9733 156.164 83.9572 157.118 84.6252C158.763 85.7841 158.763 86.8384 158.763 86.8384L154.712 95.6993C154.712 95.6993 153.573 96.3109 151.68 95.2406C150.846 94.7657 150.333 94.0173 150.1 93.5988C149.996 93.4137 149.844 93.0434 149.803 92.8986C149.659 92.464 149.579 91.957 149.579 91.3695Z" fill="#30282A"/>
<path d="M159.003 88.448C159.003 91.128 157.383 94.2426 155.378 95.4015C153.373 96.5605 151.753 95.3291 151.753 92.6491C151.753 89.9691 153.373 86.8545 155.378 85.6956C157.383 84.5367 159.003 85.768 159.003 88.448Z" fill="#4D4143"/>
<path d="M158.305 88.8906C158.305 91.0073 157.022 93.47 155.434 94.3875C153.846 95.3049 152.563 94.3311 152.563 92.2145C152.563 90.0979 153.846 87.6352 155.434 86.7177C157.022 85.7921 158.305 86.766 158.305 88.8906Z" fill="#E0D4D3"/>
<path d="M155.538 87.1523C154.119 87.9732 152.964 90.1864 152.964 92.0938C152.964 94.0012 154.119 94.8704 155.538 94.0495C156.958 93.2286 158.113 91.0154 158.113 89.108C158.113 87.2006 156.958 86.3234 155.538 87.1523ZM154.977 87.7881C155.041 87.6996 155.322 87.4742 155.522 87.3616C155.747 87.2408 155.979 87.0557 156.477 87.096C156.581 87.104 156.693 87.1684 156.749 87.2247C156.83 87.3133 156.814 87.4179 156.725 87.5949C156.637 87.764 156.517 87.9973 156.397 88.1744C156.34 88.2629 156.3 88.2227 156.18 88.2307C156.06 88.2388 155.931 88.2549 155.835 88.2951C155.602 88.3998 155.426 88.5044 155.266 88.6412C155.185 88.7056 155.145 88.6895 155.105 88.6412C155.017 88.5124 154.953 88.3434 154.897 88.1744C154.865 88.0617 154.873 87.941 154.977 87.7881ZM156.91 89.8001C156.91 90.8142 156.292 91.9892 155.538 92.4318C154.776 92.8745 154.167 92.4077 154.167 91.3936C154.167 90.3796 154.784 89.2046 155.538 88.7619C156.292 88.3193 156.91 88.7861 156.91 89.8001ZM153.333 90.5969C153.525 89.7921 153.718 89.4943 153.87 89.1885C154.014 88.9148 154.247 88.5607 154.319 88.5044C154.439 88.3998 154.512 88.44 154.552 88.5366C154.616 88.6895 154.68 88.8665 154.712 89.0677C154.72 89.1402 154.72 89.2126 154.648 89.3172C154.512 89.5265 154.383 89.7518 154.231 90.0818C154.167 90.2186 154.111 90.4198 154.055 90.6049C153.998 90.79 154.006 90.8625 153.934 90.9188C153.798 91.0315 153.621 91.128 153.493 91.1924C153.365 91.2649 153.301 91.2407 153.293 91.0797C153.276 90.9751 153.293 90.7739 153.333 90.5969ZM153.902 93.8724C153.83 93.8724 153.645 93.7034 153.533 93.5344C153.413 93.3493 153.26 93.1964 153.196 92.5043C153.18 92.3513 153.204 92.1501 153.228 92.0294C153.268 91.8443 153.341 91.7719 153.461 91.7316C153.581 91.6914 153.75 91.6431 153.886 91.6431C153.95 91.6431 153.934 91.7236 153.958 91.8765C153.99 92.0294 154.014 92.1904 154.063 92.2789C154.167 92.4962 154.271 92.633 154.383 92.7296C154.439 92.7779 154.431 92.8503 154.407 92.9389C154.343 93.1722 154.247 93.4217 154.151 93.6471C154.095 93.7758 154.022 93.8724 153.902 93.8724ZM156.276 93.132C156.212 93.2366 156.084 93.4056 155.963 93.5103C155.426 93.9931 155.201 94.0012 154.985 94.0656C154.784 94.1219 154.528 94.13 154.472 94.0897C154.383 94.0173 154.399 93.8966 154.448 93.7517C154.536 93.5183 154.632 93.2769 154.752 93.0676C154.792 92.9871 154.841 92.9308 154.921 92.9308C155.073 92.9308 155.242 92.8906 155.474 92.794C155.57 92.7537 155.707 92.6491 155.835 92.5525C155.963 92.456 156.012 92.3835 156.052 92.4238C156.148 92.5043 156.244 92.6572 156.3 92.7537C156.381 92.8664 156.381 92.963 156.276 93.132ZM157.72 90.79C157.616 91.1119 157.536 91.458 157.094 92.1582C156.998 92.3111 156.862 92.464 156.782 92.5284C156.653 92.633 156.597 92.6089 156.557 92.464C156.517 92.3352 156.461 92.1421 156.445 91.965C156.437 91.8765 156.493 91.8282 156.589 91.6592C156.685 91.4902 156.79 91.297 156.838 91.1602C156.966 90.8222 157.038 90.5647 157.086 90.3232C157.11 90.2025 157.159 90.1462 157.223 90.0979C157.383 89.9772 157.552 89.8967 157.712 89.8323C157.808 89.7921 157.88 89.8162 157.896 89.9691C157.904 90.0898 157.816 90.5003 157.72 90.79ZM157.712 89.4862C157.552 89.5587 157.383 89.615 157.239 89.6231C157.183 89.6231 157.142 89.607 157.134 89.4943C157.126 89.277 157.094 89.0677 157.022 88.8102C156.99 88.7056 156.918 88.5929 156.846 88.4883C156.774 88.3837 156.725 88.3837 156.749 88.279C156.806 88.0698 156.894 87.8203 156.966 87.6432C157.038 87.4581 157.102 87.3777 157.215 87.3857C157.287 87.3937 157.407 87.442 157.479 87.5225C157.824 87.9008 157.848 88.2066 157.896 88.4641C157.945 88.6975 157.961 89.0677 157.937 89.1804C157.896 89.3655 157.808 89.446 157.712 89.4862Z" fill="white"/>
<path d="M155.683 89.2851C155.065 89.6392 154.568 90.6049 154.568 91.4258C154.568 92.2548 155.065 92.633 155.683 92.2709C156.3 91.9168 156.798 90.951 156.798 90.1301C156.798 89.3092 156.3 88.9309 155.683 89.2851Z" fill="#CCBFBE"/>
<path d="M153.485 91.2005C153.605 91.1361 153.782 91.0395 153.926 90.9268C153.998 90.8705 153.99 90.7981 154.046 90.613C154.103 90.4279 154.167 90.2186 154.223 90.0898C154.375 89.7599 154.504 89.5345 154.64 89.3253C154.712 89.2206 154.712 89.1482 154.704 89.0758C154.68 88.8826 154.616 88.7056 154.544 88.5446C154.504 88.448 154.439 88.4078 154.311 88.5124C154.239 88.5768 154.006 88.9229 153.862 89.1965C153.71 89.4943 153.517 89.7921 153.325 90.6049C153.284 90.782 153.268 90.9832 153.276 91.0878C153.301 91.2488 153.357 91.2649 153.485 91.2005Z" fill="#4D4143"/>
<path d="M155.105 88.6412C155.137 88.6895 155.177 88.7136 155.266 88.6412C155.434 88.5044 155.602 88.3997 155.835 88.2951C155.931 88.2549 156.06 88.2468 156.18 88.2307C156.3 88.2227 156.332 88.2629 156.397 88.1744C156.517 87.9973 156.637 87.7639 156.725 87.5949C156.814 87.4179 156.83 87.3132 156.749 87.2247C156.693 87.1684 156.589 87.104 156.477 87.0959C155.979 87.0557 155.747 87.2408 155.522 87.3615C155.322 87.4742 155.041 87.6996 154.977 87.7881C154.873 87.941 154.865 88.0617 154.897 88.1663C154.945 88.3434 155.017 88.5124 155.105 88.6412Z" fill="#4D4143"/>
<path d="M157.896 88.4641C157.84 88.2066 157.824 87.9008 157.479 87.5225C157.407 87.442 157.287 87.3937 157.215 87.3857C157.102 87.3776 157.03 87.4581 156.966 87.6432C156.902 87.8203 156.806 88.0698 156.749 88.279C156.725 88.3836 156.774 88.3836 156.846 88.4883C156.918 88.5929 156.99 88.7056 157.022 88.8102C157.102 89.0677 157.126 89.277 157.134 89.4943C157.143 89.6069 157.183 89.623 157.239 89.623C157.391 89.615 157.56 89.5587 157.712 89.4862C157.808 89.446 157.888 89.3655 157.937 89.1804C157.969 89.0677 157.953 88.6975 157.896 88.4641Z" fill="#4D4143"/>
<path d="M157.712 89.8484C157.552 89.9128 157.383 89.9932 157.223 90.114C157.167 90.1542 157.118 90.2105 157.086 90.3393C157.038 90.5807 156.966 90.8383 156.838 91.1763C156.782 91.3131 156.685 91.4982 156.589 91.6753C156.493 91.8443 156.437 91.8926 156.445 91.9811C156.461 92.1582 156.517 92.3513 156.557 92.4801C156.597 92.6169 156.653 92.6491 156.782 92.5445C156.862 92.472 156.998 92.3191 157.094 92.1743C157.535 91.4741 157.616 91.128 157.72 90.8061C157.816 90.5083 157.904 90.0979 157.896 90.0013C157.88 89.8323 157.808 89.8162 157.712 89.8484Z" fill="#4D4143"/>
<path d="M156.06 92.4238C156.012 92.3835 155.963 92.456 155.843 92.5525C155.715 92.6491 155.578 92.7537 155.482 92.794C155.25 92.8906 155.081 92.9227 154.929 92.9308C154.849 92.9308 154.8 92.9952 154.76 93.0676C154.64 93.2769 154.544 93.5263 154.456 93.7517C154.407 93.8885 154.391 94.0173 154.48 94.0897C154.528 94.1299 154.792 94.1219 154.993 94.0656C155.209 94.0012 155.434 93.9851 155.971 93.5102C156.092 93.4056 156.22 93.2447 156.284 93.132C156.389 92.971 156.389 92.8664 156.316 92.7618C156.252 92.6572 156.156 92.5042 156.06 92.4238Z" fill="#4D4143"/>
<path d="M154.391 92.7216C154.279 92.625 154.175 92.4962 154.071 92.2709C154.03 92.1823 153.998 92.0133 153.966 91.8685C153.934 91.7156 153.958 91.6351 153.894 91.6351C153.766 91.6351 153.589 91.6914 153.469 91.7236C153.341 91.7638 153.276 91.8363 153.236 92.0214C153.212 92.1421 153.188 92.3433 153.204 92.4962C153.268 93.1964 153.429 93.3413 153.541 93.5264C153.645 93.6954 153.838 93.8644 153.91 93.8644C154.022 93.8644 154.103 93.7678 154.159 93.631C154.255 93.4056 154.351 93.1561 154.415 92.9228C154.439 92.8503 154.448 92.7698 154.391 92.7216Z" fill="#4D4143"/>
<path d="M139.665 97.2365C139.665 94.5565 141.285 91.4419 143.291 90.2829C143.796 89.9932 144.398 89.8403 144.879 89.8403C145.256 89.8403 146.25 89.8242 147.205 90.4922C148.849 91.6511 148.849 92.7054 148.849 92.7054L144.799 101.574C144.799 101.574 143.66 102.186 141.767 101.116C140.933 100.641 140.419 99.8923 140.187 99.4738C140.082 99.2887 139.93 98.9185 139.89 98.7736C139.745 98.331 139.665 97.8159 139.665 97.2365Z" fill="#30282A"/>
<path d="M149.09 94.307C149.09 96.987 147.461 100.102 145.464 101.26C143.459 102.419 141.839 101.188 141.839 98.5081C141.839 95.8281 143.467 92.7135 145.464 91.5546C147.469 90.3956 149.09 91.627 149.09 94.307Z" fill="#4D4143"/>
<path d="M148.392 94.7496C148.392 96.8663 147.109 99.329 145.52 100.246C143.932 101.164 142.649 100.19 142.649 98.0735C142.649 95.9568 143.932 93.4941 145.52 92.5767C147.1 91.6592 148.392 92.633 148.392 94.7496Z" fill="#E0D4D3"/>
<path d="M145.617 93.0112C144.197 93.8321 143.042 96.0454 143.042 97.9527C143.042 99.8601 144.197 100.729 145.617 99.9084C147.036 99.0875 148.191 96.8743 148.191 94.9669C148.199 93.0676 147.044 92.1903 145.617 93.0112ZM145.063 93.6551C145.127 93.5666 145.408 93.3412 145.609 93.2285C145.833 93.1078 146.066 92.9227 146.563 92.963C146.667 92.971 146.78 93.0354 146.836 93.0917C146.916 93.1803 146.9 93.2849 146.812 93.4619C146.724 93.6309 146.603 93.8643 146.483 94.0414C146.427 94.1299 146.387 94.0897 146.266 94.0977C146.146 94.1058 146.018 94.1219 145.921 94.1621C145.689 94.2667 145.512 94.3714 145.352 94.5082C145.272 94.5726 145.232 94.5565 145.192 94.5082C145.103 94.3794 145.039 94.2104 144.983 94.0414C144.951 93.9287 144.959 93.808 145.063 93.6551ZM146.996 95.6671C146.996 96.6812 146.379 97.8562 145.625 98.2988C144.863 98.7414 144.253 98.2747 144.253 97.2606C144.253 96.2466 144.871 95.0715 145.625 94.6289C146.379 94.1863 146.996 94.653 146.996 95.6671ZM143.419 96.4639C143.611 95.659 143.804 95.3613 143.956 95.0554C144.101 94.7818 144.333 94.4277 144.406 94.3714C144.526 94.2667 144.598 94.307 144.638 94.4036C144.702 94.5565 144.766 94.7335 144.799 94.9347C144.807 95.0072 144.807 95.0796 144.734 95.1842C144.598 95.3935 144.47 95.6188 144.317 95.9488C144.253 96.0856 144.197 96.2868 144.141 96.4719C144.085 96.657 144.093 96.7294 144.021 96.7858C143.884 96.8984 143.708 96.995 143.579 97.0594C143.451 97.1318 143.387 97.1077 143.379 96.9467C143.363 96.8341 143.379 96.6409 143.419 96.4639ZM143.988 99.7394C143.916 99.7394 143.732 99.5704 143.619 99.4014C143.499 99.2163 143.347 99.0634 143.283 98.3712C143.267 98.2183 143.291 98.0171 143.315 97.8964C143.355 97.7113 143.427 97.6389 143.547 97.5986C143.668 97.5584 143.836 97.5101 143.972 97.5101C144.037 97.5101 144.021 97.5906 144.045 97.7435C144.077 97.8964 144.101 98.0574 144.149 98.1459C144.253 98.3632 144.357 98.5 144.47 98.5966C144.526 98.6449 144.518 98.7173 144.494 98.8058C144.43 99.0392 144.333 99.2887 144.237 99.5141C144.181 99.6348 144.109 99.7394 143.988 99.7394ZM146.363 98.9909C146.298 99.0956 146.17 99.2646 146.05 99.3692C145.512 99.8521 145.288 99.8601 145.071 99.9245C144.871 99.9808 144.614 99.9889 144.558 99.9487C144.47 99.8762 144.486 99.7555 144.534 99.6106C144.622 99.3772 144.718 99.1358 144.839 98.9266C144.879 98.8461 144.927 98.7897 145.007 98.7897C145.159 98.7897 145.328 98.7495 145.561 98.6529C145.657 98.6127 145.793 98.5081 145.921 98.4115C146.05 98.3149 146.098 98.2425 146.138 98.2827C146.234 98.3632 146.322 98.5161 146.387 98.6127C146.467 98.7254 146.467 98.83 146.363 98.9909ZM147.806 96.657C147.702 96.9789 147.622 97.325 147.181 98.0252C147.084 98.1781 146.948 98.331 146.868 98.3954C146.74 98.5 146.683 98.4759 146.643 98.331C146.603 98.2022 146.547 98.0091 146.531 97.832C146.523 97.7435 146.579 97.6952 146.675 97.5262C146.772 97.3572 146.876 97.164 146.924 97.0272C147.052 96.6892 147.125 96.4317 147.173 96.1902C147.197 96.0695 147.245 96.0132 147.309 95.9649C147.469 95.8442 147.638 95.7637 147.798 95.6993C147.895 95.6591 147.967 95.6832 147.983 95.8361C147.991 95.9488 147.903 96.3592 147.806 96.657ZM147.798 95.3532C147.638 95.4257 147.469 95.482 147.325 95.49C147.269 95.49 147.229 95.4739 147.221 95.3613C147.213 95.144 147.181 94.9347 147.109 94.6772C147.076 94.5726 147.004 94.4599 146.932 94.3553C146.86 94.2506 146.812 94.2506 146.836 94.146C146.892 93.9368 146.98 93.6873 147.052 93.5102C147.125 93.3251 147.189 93.2446 147.301 93.2527C147.373 93.2607 147.494 93.309 147.566 93.3895C147.911 93.7678 147.935 94.0736 147.983 94.3311C148.031 94.5645 148.047 94.9347 148.023 95.0474C147.983 95.2245 147.895 95.3049 147.798 95.3532Z" fill="white"/>
<path d="M145.769 95.152C145.151 95.5061 144.654 96.4719 144.654 97.2928C144.654 98.1137 145.151 98.5 145.769 98.1378C146.387 97.7837 146.884 96.818 146.884 95.9971C146.884 95.1681 146.387 94.7899 145.769 95.152Z" fill="#CCBFBE"/>
<path d="M143.571 97.0594C143.692 96.995 143.868 96.8985 144.013 96.7858C144.085 96.7294 144.077 96.657 144.133 96.4719C144.189 96.2868 144.253 96.0776 144.309 95.9488C144.462 95.6188 144.59 95.3935 144.726 95.1842C144.799 95.0796 144.799 95.0072 144.791 94.9347C144.766 94.7416 144.702 94.5645 144.63 94.4036C144.59 94.307 144.526 94.2667 144.398 94.3714C144.325 94.4358 144.093 94.7818 143.948 95.0555C143.796 95.3532 143.603 95.651 143.411 96.4639C143.371 96.6409 143.355 96.8421 143.363 96.9467C143.379 97.1077 143.443 97.1318 143.571 97.0594Z" fill="#4D4143"/>
<path d="M145.192 94.5001C145.224 94.5484 145.264 94.5726 145.352 94.5001C145.52 94.3633 145.689 94.2587 145.921 94.1541C146.018 94.1138 146.146 94.1058 146.266 94.0897C146.387 94.0816 146.419 94.1219 146.483 94.0333C146.603 93.8563 146.724 93.6229 146.812 93.4539C146.9 93.2768 146.916 93.1722 146.836 93.0837C146.78 93.0273 146.675 92.9629 146.563 92.9549C146.066 92.9147 145.833 93.0998 145.609 93.2205C145.408 93.3332 145.127 93.5585 145.063 93.647C144.959 93.7999 144.951 93.9207 144.983 94.0253C145.031 94.2023 145.095 94.3794 145.192 94.5001Z" fill="#4D4143"/>
<path d="M147.983 94.3311C147.927 94.0736 147.911 93.7678 147.566 93.3895C147.494 93.309 147.373 93.2607 147.301 93.2527C147.189 93.2446 147.117 93.3251 147.052 93.5102C146.988 93.6873 146.892 93.9368 146.836 94.146C146.812 94.2506 146.86 94.2506 146.932 94.3553C147.004 94.4599 147.076 94.5726 147.109 94.6772C147.189 94.9347 147.213 95.144 147.221 95.3613C147.229 95.4739 147.269 95.49 147.325 95.49C147.477 95.482 147.646 95.4257 147.798 95.3532C147.895 95.313 147.975 95.2325 148.023 95.0474C148.047 94.9347 148.031 94.5645 147.983 94.3311Z" fill="#4D4143"/>
<path d="M147.798 95.7154C147.638 95.7798 147.469 95.8603 147.309 95.981C147.253 96.0212 147.205 96.0776 147.173 96.2063C147.125 96.4478 147.052 96.7053 146.924 97.0433C146.868 97.1801 146.772 97.3652 146.675 97.5423C146.579 97.7113 146.523 97.7596 146.531 97.8481C146.547 98.0252 146.603 98.2183 146.643 98.3471C146.683 98.4839 146.74 98.5161 146.868 98.4115C146.948 98.3391 147.084 98.1861 147.181 98.0413C147.622 97.3411 147.702 96.995 147.806 96.6731C147.903 96.3753 147.991 95.9649 147.983 95.8683C147.967 95.6913 147.895 95.6752 147.798 95.7154Z" fill="#4D4143"/>
<path d="M146.146 98.2827C146.098 98.2425 146.05 98.3149 145.929 98.4115C145.801 98.508 145.665 98.6127 145.569 98.6529C145.336 98.7495 145.168 98.7817 145.015 98.7897C144.935 98.7897 144.887 98.8541 144.847 98.9265C144.726 99.1358 144.63 99.3853 144.542 99.6106C144.494 99.7474 144.478 99.8762 144.566 99.9487C144.614 99.9889 144.879 99.9808 145.079 99.9245C145.296 99.8601 145.52 99.844 146.058 99.3692C146.178 99.2646 146.306 99.1036 146.371 98.9909C146.475 98.83 146.475 98.7253 146.403 98.6207C146.339 98.5161 146.242 98.3712 146.146 98.2827Z" fill="#4D4143"/>
<path d="M144.47 98.5885C144.357 98.492 144.253 98.3632 144.149 98.1378C144.109 98.0493 144.077 97.8803 144.045 97.7354C144.012 97.5825 144.037 97.502 143.972 97.502C143.844 97.502 143.668 97.5584 143.547 97.5906C143.419 97.6308 143.355 97.7032 143.315 97.8883C143.291 98.0091 143.267 98.2103 143.283 98.3632C143.347 99.0634 143.507 99.2082 143.619 99.3933C143.724 99.5623 143.916 99.7313 143.988 99.7313C144.101 99.7313 144.181 99.6348 144.237 99.498C144.333 99.2726 144.43 99.0231 144.494 98.7897C144.526 98.7092 144.526 98.6368 144.47 98.5885Z" fill="#4D4143"/>
<path d="M94.8133 123.304C94.8133 120.624 96.4415 117.509 98.4386 116.351C98.944 116.061 99.5455 115.908 100.027 115.908C100.404 115.908 101.398 115.892 102.353 116.56C103.997 117.719 103.997 118.773 103.997 118.773L99.9465 127.634C99.9465 127.634 98.8076 128.246 96.9147 127.175C96.0805 126.7 95.5672 125.952 95.3346 125.533C95.2303 125.348 95.0779 124.978 95.0378 124.833C94.8854 124.399 94.8133 123.884 94.8133 123.304Z" fill="#30282A"/>
<path d="M104.238 120.375C104.238 123.055 102.617 126.169 100.612 127.328C98.6071 128.487 96.9869 127.256 96.9869 124.576C96.9869 121.896 98.6071 118.781 100.612 117.622C102.609 116.463 104.238 117.695 104.238 120.375Z" fill="#4D4143"/>
<path d="M103.532 120.817C103.532 122.934 102.249 125.397 100.66 126.314C99.0723 127.231 97.789 126.258 97.789 124.141C97.789 122.024 99.0723 119.562 100.66 118.644C102.249 117.727 103.532 118.701 103.532 120.817Z" fill="#E0D4D3"/>
<path d="M100.765 119.079C99.345 119.9 98.19 122.113 98.19 124.02C98.19 125.928 99.345 126.797 100.765 125.976C102.184 125.155 103.339 122.942 103.339 121.035C103.339 119.135 102.184 118.258 100.765 119.079ZM100.203 119.723C100.267 119.634 100.548 119.409 100.749 119.296C100.973 119.175 101.206 118.99 101.703 119.031C101.807 119.039 101.92 119.103 101.976 119.159C102.056 119.248 102.04 119.352 101.952 119.53C101.864 119.699 101.743 119.932 101.623 120.109C101.567 120.198 101.527 120.157 101.406 120.165C101.286 120.173 101.158 120.189 101.061 120.23C100.829 120.334 100.652 120.439 100.492 120.576C100.412 120.64 100.372 120.624 100.332 120.576C100.243 120.447 100.179 120.278 100.123 120.101C100.091 119.996 100.099 119.876 100.203 119.723ZM102.136 121.735C102.136 122.749 101.519 123.924 100.765 124.366C100.003 124.809 99.3931 124.342 99.3931 123.328C99.3931 122.314 100.011 121.139 100.765 120.696C101.519 120.254 102.136 120.721 102.136 121.735ZM98.559 122.531C98.7515 121.727 98.944 121.429 99.0964 121.123C99.2407 120.849 99.4733 120.495 99.5455 120.439C99.6658 120.334 99.738 120.375 99.7781 120.471C99.8423 120.624 99.9064 120.801 99.9385 121.002C99.9465 121.075 99.9465 121.147 99.8744 121.252C99.738 121.461 99.6017 121.686 99.4573 122.016C99.3931 122.153 99.337 122.354 99.2808 122.539C99.2247 122.725 99.2327 122.797 99.1605 122.853C99.0242 122.966 98.8477 123.063 98.7194 123.127C98.591 123.199 98.5269 123.175 98.5189 123.014C98.5108 122.91 98.5189 122.709 98.559 122.531ZM99.1365 125.807C99.0643 125.807 98.8798 125.638 98.7675 125.469C98.6472 125.284 98.4948 125.131 98.4306 124.439C98.4146 124.286 98.4386 124.085 98.4627 123.964C98.5028 123.779 98.575 123.706 98.6953 123.666C98.8156 123.626 98.9841 123.578 99.1204 123.578C99.1846 123.578 99.1685 123.658 99.1926 123.811C99.2247 123.964 99.2487 124.125 99.2969 124.213C99.4011 124.431 99.5054 124.568 99.6177 124.664C99.6738 124.712 99.6658 124.785 99.6418 124.873C99.5776 125.107 99.4813 125.356 99.3851 125.582C99.329 125.702 99.2487 125.807 99.1365 125.807ZM101.511 125.059C101.446 125.163 101.318 125.332 101.198 125.437C100.66 125.92 100.436 125.928 100.219 125.992C100.019 126.048 99.7621 126.056 99.7059 126.016C99.6177 125.944 99.6337 125.823 99.6819 125.678C99.7701 125.445 99.8663 125.203 99.9867 124.994C100.027 124.914 100.075 124.857 100.155 124.857C100.307 124.857 100.476 124.817 100.709 124.721C100.805 124.68 100.941 124.576 101.069 124.479C101.198 124.382 101.238 124.31 101.286 124.35C101.382 124.431 101.479 124.584 101.535 124.68C101.607 124.793 101.607 124.898 101.511 125.059ZM102.954 122.725C102.85 123.047 102.77 123.393 102.329 124.093C102.232 124.246 102.096 124.399 102.016 124.463C101.888 124.568 101.831 124.543 101.791 124.399C101.751 124.27 101.695 124.077 101.679 123.9C101.671 123.811 101.727 123.763 101.823 123.594C101.92 123.425 102.024 123.232 102.072 123.095C102.2 122.757 102.273 122.499 102.321 122.258C102.345 122.137 102.393 122.081 102.457 122.032C102.617 121.912 102.786 121.831 102.946 121.767C103.043 121.727 103.115 121.751 103.131 121.904C103.131 122.016 103.051 122.427 102.954 122.725ZM102.946 121.421C102.786 121.493 102.617 121.55 102.473 121.558C102.417 121.558 102.377 121.542 102.369 121.429C102.361 121.212 102.329 121.002 102.257 120.745C102.224 120.64 102.152 120.527 102.08 120.423C102.008 120.318 101.96 120.318 101.984 120.214C102.04 120.004 102.128 119.755 102.2 119.578C102.273 119.393 102.337 119.312 102.449 119.32C102.521 119.328 102.642 119.377 102.714 119.457C103.059 119.835 103.083 120.141 103.131 120.399C103.179 120.632 103.195 121.002 103.171 121.115C103.123 121.292 103.043 121.373 102.946 121.421Z" fill="white"/>
<path d="M100.909 121.22C100.291 121.574 99.7941 122.539 99.7941 123.36C99.7941 124.181 100.291 124.568 100.909 124.205C101.527 123.843 102.024 122.886 102.024 122.065C102.024 121.236 101.527 120.857 100.909 121.22Z" fill="#CCBFBE"/>
<path d="M98.7194 123.127C98.8397 123.063 99.0161 122.966 99.1605 122.853C99.2327 122.797 99.2247 122.725 99.2808 122.54C99.337 122.354 99.4011 122.145 99.4573 122.016C99.6097 121.686 99.738 121.461 99.8743 121.252C99.9465 121.147 99.9465 121.075 99.9385 121.002C99.9145 120.809 99.8503 120.632 99.7781 120.471C99.738 120.375 99.6738 120.334 99.5455 120.439C99.4733 120.503 99.2407 120.849 99.0963 121.123C98.9439 121.421 98.7514 121.719 98.5589 122.531C98.5188 122.709 98.5028 122.91 98.5108 123.014C98.5269 123.175 98.591 123.199 98.7194 123.127Z" fill="#4D4143"/>
<path d="M100.332 120.568C100.364 120.616 100.404 120.64 100.492 120.568C100.66 120.431 100.829 120.326 101.061 120.222C101.158 120.181 101.286 120.173 101.406 120.157C101.527 120.149 101.559 120.189 101.623 120.101C101.743 119.924 101.864 119.691 101.952 119.521C102.04 119.344 102.056 119.24 101.976 119.151C101.92 119.095 101.815 119.031 101.703 119.023C101.206 118.982 100.973 119.167 100.749 119.288C100.548 119.401 100.267 119.626 100.203 119.715C100.099 119.868 100.091 119.988 100.123 120.093C100.179 120.27 100.243 120.447 100.332 120.568Z" fill="#4D4143"/>
<path d="M103.131 120.399C103.075 120.141 103.059 119.835 102.714 119.457C102.641 119.377 102.521 119.328 102.449 119.32C102.337 119.312 102.265 119.393 102.2 119.578C102.136 119.755 102.04 120.004 101.984 120.214C101.96 120.318 102.008 120.318 102.08 120.423C102.152 120.527 102.224 120.64 102.257 120.745C102.337 121.002 102.361 121.212 102.369 121.429C102.377 121.542 102.417 121.558 102.473 121.558C102.625 121.55 102.794 121.493 102.946 121.421C103.043 121.381 103.123 121.3 103.171 121.115C103.195 121.002 103.179 120.632 103.131 120.399Z" fill="#4D4143"/>
<path d="M102.938 121.783C102.778 121.847 102.609 121.928 102.449 122.049C102.393 122.089 102.345 122.145 102.313 122.274C102.265 122.515 102.192 122.773 102.064 123.111C102.008 123.248 101.912 123.433 101.815 123.61C101.719 123.779 101.663 123.827 101.671 123.916C101.687 124.093 101.743 124.286 101.783 124.415C101.823 124.552 101.88 124.584 102.008 124.479C102.088 124.407 102.224 124.254 102.321 124.109C102.762 123.409 102.842 123.063 102.946 122.741C103.043 122.443 103.131 122.032 103.123 121.936C103.115 121.759 103.035 121.743 102.938 121.783Z" fill="#4D4143"/>
<path d="M101.294 124.35C101.246 124.31 101.198 124.382 101.077 124.479C100.949 124.576 100.813 124.68 100.717 124.721C100.484 124.817 100.316 124.849 100.163 124.857C100.083 124.857 100.035 124.922 99.9947 124.994C99.8744 125.203 99.7781 125.453 99.6899 125.678C99.6418 125.815 99.6257 125.944 99.714 126.016C99.7621 126.056 100.027 126.048 100.227 125.992C100.444 125.928 100.668 125.912 101.206 125.437C101.326 125.332 101.454 125.171 101.519 125.059C101.623 124.898 101.623 124.793 101.551 124.688C101.479 124.584 101.39 124.439 101.294 124.35Z" fill="#4D4143"/>
<path d="M99.6177 124.656C99.5054 124.56 99.4012 124.431 99.2969 124.205C99.2568 124.117 99.2247 123.948 99.1926 123.803C99.1605 123.65 99.1846 123.57 99.1204 123.57C98.9921 123.57 98.8156 123.626 98.6953 123.658C98.567 123.698 98.5028 123.771 98.4627 123.956C98.4387 124.077 98.4146 124.278 98.4306 124.431C98.4948 125.131 98.6552 125.276 98.7675 125.461C98.8718 125.63 99.0643 125.799 99.1365 125.799C99.2488 125.799 99.329 125.702 99.3851 125.566C99.4814 125.34 99.5776 125.091 99.6418 124.857C99.6658 124.777 99.6739 124.704 99.6177 124.656Z" fill="#4D4143"/>
<path d="M88.7977 95.5625L63.5564 80.9794C61.0138 82.5649 59.931 84.424 59.7225 87.5386L84.8996 102.162L88.7977 95.5625Z" fill="#F7A299"/>
<path d="M140.026 37.0371L165.267 51.6604L88.7977 95.5625L63.5564 80.9794L140.026 37.0371Z" fill="#F36E5F"/>
<path d="M165.268 51.6604L89.1265 95.3613C86.3032 97.0031 85.1242 98.8943 84.8996 102.154V126.789V128.133V129.839C84.9317 129.831 84.9718 129.831 85.0039 129.823C86.7684 129.485 88.1079 128.567 88.2442 128.487C90.0329 127.457 95.3988 124.366 95.3988 124.366C95.3988 124.366 95.4068 124.366 95.4068 124.358L95.7196 124.181C96.1928 121.244 97.9814 118.234 100.115 116.994C102.256 115.755 104.037 116.705 104.51 119.103C104.711 118.99 104.879 118.894 104.984 118.829L133.682 102.258C133.682 102.266 133.682 102.283 133.682 102.291C133.738 102.242 140.459 98.4034 140.652 98.2988C141.085 95.313 142.898 92.2145 145.071 90.9509C147.245 89.6874 149.058 90.6934 149.499 93.1802C149.691 93.0676 150.926 92.3513 150.926 92.3513C151.384 89.3896 153.18 86.3233 155.338 85.0759C157.495 83.8284 159.292 84.8022 159.749 87.2327C159.942 87.1201 167 83.0639 167 83.0639V80.9231V79.8366V54.9601C167 52.9642 165.268 51.6604 165.268 51.6604ZM102.625 115.996H102.633C102.633 115.996 102.633 115.996 102.625 115.996ZM136.24 96.0373L136.256 96.0131L136.272 96.0051C136.264 96.0131 136.248 96.0292 136.24 96.0373Z" fill="#E82711"/>
<path d="M59.7225 87.5386V114.998L61.9763 118.363L76.4538 127.087L84.8996 129.622V102.154L59.7225 87.5386Z" fill="#F04935"/>
<path d="M59.7225 94.3633V109.928L84.8996 124.551V108.987L59.7225 94.3633Z" fill="#4D4143"/>
<path d="M128.019 49.1735L145.071 59.0485L100.957 84.4078L83.9131 74.557L128.019 49.1735Z" fill="#E0D4D3"/>
<path d="M128.019 46.3809L145.071 56.2639L103.724 80.1907L86.6722 70.3399L128.019 46.3809Z" fill="white"/>
<path d="M145.071 56.2639V59.0485L100.957 84.4078L103.724 80.1907L145.071 56.2639Z" fill="#E0D4D3"/>
<path d="M86.6722 70.3399L103.724 80.1907L100.957 84.4079L83.9131 74.5571L86.6722 70.3399Z" fill="#CCBFBE"/>
<path d="M140.339 55.8534L104.31 76.73C104.117 76.8427 103.764 76.8266 103.54 76.6978C103.315 76.5691 103.291 76.3679 103.484 76.2552L139.513 55.3786C139.705 55.2659 140.058 55.282 140.283 55.4108C140.507 55.5395 140.54 55.7407 140.339 55.8534Z" fill="#E0D4D3"/>
<path d="M137.684 54.2438L101.655 75.1204C101.462 75.2331 101.11 75.217 100.885 75.0882C100.66 74.9594 100.636 74.7582 100.829 74.6456L136.858 53.769C137.051 53.6563 137.403 53.6724 137.628 53.8011C137.861 53.9299 137.885 54.1311 137.684 54.2438Z" fill="#E0D4D3"/>
<path d="M134.853 52.6422L98.8236 73.5188C98.6312 73.6315 98.2782 73.6154 98.0537 73.4866C97.8291 73.3579 97.805 73.1567 97.9975 73.044L134.027 52.1674C134.219 52.0547 134.572 52.0708 134.797 52.1996C135.021 52.3284 135.045 52.5296 134.853 52.6422Z" fill="#E0D4D3"/>
<path d="M132.198 51.0407L96.1688 71.9092C95.9763 72.0219 95.6234 72.0058 95.3988 71.877C95.1742 71.7483 95.1501 71.5471 95.3426 71.4344L131.372 50.5578C131.564 50.4451 131.917 50.4612 132.142 50.59C132.374 50.7268 132.398 50.9199 132.198 51.0407Z" fill="#E0D4D3"/>
<path d="M129.543 49.431L93.5139 70.3077C93.3214 70.4203 92.9685 70.4042 92.7439 70.2755C92.5193 70.1467 92.4953 69.9455 92.6878 69.8328L128.717 48.9562C128.909 48.8435 129.262 48.8596 129.487 48.9884C129.72 49.1172 129.744 49.3184 129.543 49.431Z" fill="#E0D4D3"/>
<path d="M61.7437 116.624C65.4413 119.538 73.6224 124.495 78.4991 126.362C81.202 127.401 83.0228 127.384 84.8996 126.789V129.839C83.4559 130.097 81.4587 130.129 78.9242 129.388C73.1813 127.714 63.8131 121.026 61.7437 119.505C59.6744 117.984 59.7225 115.264 59.7225 115.264V112.375C59.7225 114.371 60.8614 115.924 61.7437 116.624Z" fill="#FF4848"/>
<path d="M101.583 94.0253L167 56.3685V75.4826L101.583 113.131V94.0253Z" fill="#30282A"/>
<path d="M90.9312 105.518V121.059L84.8996 124.527V108.987L90.9312 105.518Z" fill="#30282A"/>
<path d="M104.526 109.824L116.445 102.918C117.255 102.452 117.921 101.172 117.921 100.085V88.5043C117.921 87.4179 117.255 86.9108 116.445 87.3857L104.526 94.2909C103.716 94.7577 103.051 96.0373 103.051 97.1238V108.705C103.051 109.791 103.716 110.298 104.526 109.824Z" fill="#4D4143"/>
<path d="M121.386 100.206L133.305 93.301C134.115 92.8342 134.781 91.5545 134.781 90.468V78.8869C134.781 77.8004 134.115 77.2934 133.305 77.7682L121.386 84.6734C120.576 85.1402 119.91 86.4199 119.91 87.5064V99.0875C119.91 100.174 120.576 100.673 121.386 100.206Z" fill="#4D4143"/>
<path d="M138.053 90.5164L153.862 81.2853C154.672 80.8185 155.338 79.5388 155.338 78.4524V66.8712C155.338 65.7847 154.672 65.2777 153.862 65.7525L138.053 74.9836C137.243 75.4504 136.577 76.7301 136.577 77.8166V89.3977C136.569 90.4842 137.235 90.9912 138.053 90.5164Z" fill="#4D4143"/>
<path d="M158.257 78.6777L164.53 75.1285C165.34 74.6617 166.005 73.3821 166.005 72.2956V60.7064C166.005 59.6199 165.34 59.1129 164.53 59.5877L158.257 63.1369C157.447 63.6037 156.782 64.8834 156.782 65.9698V77.551C156.782 78.6455 157.447 79.1525 158.257 78.6777Z" fill="#4D4143"/>
<path d="M80.2717 105.293L63.5163 95.5866C63.027 95.3049 62.626 94.5403 62.626 93.8804V91.1843C62.626 90.5324 63.027 90.2266 63.5163 90.5083L80.2717 100.214C80.7609 100.496 81.162 101.26 81.162 101.92V104.625C81.162 105.276 80.7609 105.582 80.2717 105.293Z" fill="#30282A"/>
<path d="M68.7699 97.2284L69.0506 96.8743C69.203 97.1721 69.4035 97.4296 69.6201 97.5584C69.8768 97.7032 70.0452 97.6549 70.0452 97.3894C70.0452 97.0835 69.9088 96.8099 69.3394 96.4799V95.9085C69.8046 96.1822 69.957 96.0775 69.957 95.7958C69.957 95.5544 69.8447 95.3452 69.6361 95.2244C69.4517 95.1198 69.3073 95.152 69.1469 95.2486L68.8421 94.5806C69.0827 94.4438 69.3474 94.4277 69.6682 94.6128C70.2056 94.9267 70.5665 95.482 70.5665 96.0936C70.5665 96.4558 70.4061 96.6168 70.1334 96.6168V96.6409C70.4302 96.9306 70.6548 97.3411 70.6548 97.7918C70.6548 98.4437 70.2136 98.5563 69.6843 98.2505C69.2592 98.0091 68.9624 97.6388 68.7699 97.2284Z" fill="white"/>
<path d="M71.0237 97.2928C71.0237 95.989 71.529 95.6912 72.0825 96.0132C72.4274 96.2144 72.676 96.5524 72.8444 96.8743L72.5316 97.1721C72.4434 96.987 72.275 96.7777 72.1226 96.6892C71.8338 96.5202 71.6012 96.6651 71.5852 97.4699C71.7215 97.3169 71.9461 97.3089 72.1065 97.4055C72.5557 97.663 72.8846 98.1942 72.8846 98.9346C72.8846 99.6589 72.4915 99.8762 72.0183 99.6026C71.505 99.3048 71.0237 98.5241 71.0237 97.2928ZM72.3231 98.6127C72.3231 98.2425 72.1787 98.0252 71.9782 97.9045C71.8419 97.824 71.6895 97.8401 71.5852 98.0252C71.6413 98.6046 71.8098 98.8863 71.9943 98.9909C72.1787 99.0956 72.3231 99.007 72.3231 98.6127Z" fill="white"/>
<path d="M73.1813 99.7474C73.847 99.2887 74.3203 98.9587 74.3203 98.4678C74.3203 98.1298 74.1759 97.8562 73.9513 97.7274C73.7588 97.6147 73.6225 97.7032 73.4861 97.8159L73.1573 97.1882C73.4139 96.9709 73.6626 96.9226 74.0315 97.1399C74.5448 97.4377 74.8978 98.0815 74.8978 98.7495C74.8978 99.337 74.4887 99.7313 74.0636 100.077C74.1919 100.134 74.3764 100.214 74.4967 100.287L75.0261 100.592V101.277L73.1893 100.214V99.7474H73.1813Z" fill="white"/>
<path d="M78.6515 124.729C78.6836 125.976 79.4696 127.296 80.408 127.674C81.3464 128.052 82.0844 127.352 82.0523 126.105C82.0202 124.857 81.2342 123.537 80.2957 123.159C79.3493 122.773 78.6194 123.481 78.6515 124.729Z" fill="#CBCBCB"/>
<path d="M79.1808 124.978C79.2049 125.839 79.7423 126.741 80.392 127.006C81.0336 127.264 81.5389 126.781 81.5229 125.928C81.4988 125.067 80.9615 124.165 80.3118 123.9C79.6621 123.642 79.1568 124.125 79.1808 124.978Z" fill="white"/>
<path d="M79.7663 125.179C79.7744 125.59 80.039 126.032 80.3519 126.153C80.6647 126.282 80.9053 126.048 80.8973 125.63C80.8892 125.22 80.6246 124.777 80.3117 124.656C79.9989 124.535 79.7583 124.769 79.7663 125.179Z" fill="#30282A"/>
<path d="M60.9336 114.435C60.9657 115.683 61.7518 117.002 62.6902 117.381C63.6286 117.759 64.3665 117.059 64.3344 115.811C64.3023 114.564 63.5163 113.244 62.5779 112.866C61.6314 112.479 60.9016 113.188 60.9336 114.435Z" fill="#CBCBCB"/>
<path d="M61.463 114.693C61.487 115.554 62.0244 116.455 62.6741 116.721C63.3158 116.978 63.8211 116.495 63.805 115.642C63.781 114.781 63.2436 113.88 62.5939 113.614C61.9442 113.349 61.4389 113.831 61.463 114.693Z" fill="white"/>
<path d="M62.0646 114.894C62.0726 115.304 62.3373 115.747 62.6501 115.868C62.9629 115.996 63.2035 115.763 63.1955 115.345C63.1875 114.934 62.9228 114.491 62.61 114.371C62.2972 114.242 62.0565 114.475 62.0646 114.894Z" fill="#30282A"/>
<path d="M74.216 125.654L66.091 120.946V118.926L74.216 123.634V125.654Z" fill="white"/>
<path d="M82.4373 127.891C82.4453 128.342 82.734 128.817 83.0709 128.954C83.4078 129.091 83.6725 128.833 83.6644 128.382C83.6564 127.932 83.3677 127.457 83.0308 127.32C82.6939 127.183 82.4212 127.441 82.4373 127.891Z" fill="white"/>
<path d="M60.0273 115.972C60.0994 116.415 60.3802 116.801 60.6529 116.841C60.9256 116.882 61.086 116.56 61.0138 116.117C60.9416 115.675 60.6609 115.288 60.3882 115.248C60.1155 115.208 59.9551 115.53 60.0273 115.972Z" fill="white"/>
<path d="M92.0301 120.471L100.051 115.852V98.0654L92.0301 102.685V120.471ZM99.6257 115.61L92.4552 119.739V102.926L99.6257 98.7978V115.61Z" fill="#30282A"/>
<path d="M105.04 116.721L113.06 112.101V108.142L105.04 112.761V116.721ZM112.635 111.852L105.465 115.98V112.995L112.635 108.866V111.852Z" fill="#30282A"/>
<path d="M93.4417 117.727L96.6981 115.852V108.439L93.4417 110.315V117.727Z" fill="#30282A"/>
<path d="M82.1405 108.906L66.7968 100.021L65.4092 99.2163L63.0992 97.8803L62.4736 97.5181C61.6635 97.0514 60.9978 97.5503 60.9978 98.6368V99.0956V101.768V103.377V107.176C60.9978 108.262 61.6635 109.534 62.4736 110.009L82.1405 121.397C82.9506 121.863 83.6163 121.364 83.6163 120.278V111.739C83.6163 110.653 82.9506 109.381 82.1405 108.906Z" fill="#605558"/>
<path d="M85.0921 106.347C83.7928 107.103 81.2021 108.616 80.3519 109.123C78.9883 109.944 79.3733 112.729 79.3733 114.942C79.3733 116.632 82.1325 117.526 82.1325 114.942C82.1325 112.85 82.1325 110.242 82.1325 110.242L88.918 106.121C89.3752 105.856 89.6639 105.365 89.6639 104.826L85.0921 106.347Z" fill="#C8C8C8"/>
<path d="M80.3519 109.123C80.3519 109.123 80.1914 109.381 80.7449 109.622C81.2903 109.864 81.7314 109.622 81.7314 109.622L89.672 104.826L88.5812 104.142L80.3519 109.123Z" fill="#ECECEC"/>
<path opacity="0.5" d="M71.8098 102.926L61.4951 108.898C61.7598 109.389 62.1127 109.807 62.5057 110.033L68.1282 113.292L78.9081 107.047L71.8098 102.926Z" fill="#E0D4D3"/>
<path opacity="0.5" d="M66.8289 100.045L65.4413 99.2404L64.0136 98.4115L61.0299 100.142V101.8V103.409V106.379L69.3955 101.534L66.8289 100.045Z" fill="#E0D4D3"/>
</svg>
