<svg width="89" height="44" viewBox="0 0 89 44" fill="none" xmlns="http://www.w3.org/2000/svg">
<path d="M41.5119 34.6191C40.7369 35.5592 39.778 36.3266 38.6954 36.873C37.6559 37.3836 36.514 37.6448 35.3585 37.6364C33.348 37.6364 31.6989 36.8705 30.411 35.3388C29.1232 33.8071 28.4788 31.8188 28.478 29.3739C28.478 26.3105 29.3504 23.7667 31.0951 21.7427C32.8399 19.7187 35.0181 18.7071 37.6299 18.7079C38.7613 18.6888 39.88 18.951 40.888 19.4713C41.8478 19.981 42.7144 20.7676 43.4879 21.8311L43.8866 19.2696H49.7446L47.5988 32.9802C47.4241 34.0967 46.8616 35.1134 46.0124 35.8476C45.1632 36.5817 44.0831 36.9851 42.9662 36.9851H41.219L41.5119 34.6191ZM34.6978 28.7575C34.6978 29.8915 35.0386 30.8047 35.7203 31.4971C36.4019 32.1895 37.3042 32.5344 38.4272 32.5319C39.6519 32.5319 40.6715 32.0496 41.486 31.0849C42.3006 30.1202 42.7078 28.9127 42.7078 27.4623C42.7078 26.3632 42.367 25.4715 41.6854 24.7875C41.0037 24.1034 40.1141 23.7609 39.0166 23.7601C38.4298 23.7479 37.8477 23.8689 37.3133 24.1144C36.7788 24.3599 36.3055 24.7235 35.9282 25.1785C35.1079 26.1266 34.6978 27.3196 34.6978 28.7575Z" fill="white"/>
<path d="M63.7359 36.9852L66.508 19.2672H72.4362L72.0006 22.2908C72.5437 21.1692 73.2717 20.3153 74.1846 19.7292C75.0976 19.1431 76.1607 18.8525 77.3739 18.8575C77.5186 18.8585 77.6632 18.8672 77.807 18.8836C77.9694 18.9011 78.2229 18.9397 78.5699 18.9982L77.3394 24.5584C76.935 24.4655 76.5708 24.3953 76.2468 24.348C75.9371 24.3027 75.6246 24.2794 75.3117 24.2783C74.1207 24.2783 73.1814 24.6556 72.494 25.4102C71.8066 26.1649 71.3358 27.3313 71.0815 28.9095L70.3925 33.3751C70.2368 34.3847 69.7296 35.3046 68.9624 35.9687C68.1952 36.6328 67.2186 36.9974 66.209 36.9964L63.7359 36.9852Z" fill="white"/>
<path d="M78.8295 36.9852L81.5856 19.2671H87.8078L85.6718 32.9143C85.494 34.0492 84.922 35.0827 84.0586 35.8289C83.1953 36.5751 82.0971 36.9851 80.9618 36.9852H78.8295Z" fill="white"/>
<path d="M82.0531 13.9875C82.0544 13.1039 82.4018 12.2568 83.0193 11.6321C83.6368 11.0074 84.4738 10.6561 85.3469 10.6551C86.305 10.6551 87.1023 10.9706 87.7388 11.6015C88.052 11.911 88.2984 12.2828 88.4625 12.6934C88.6267 13.1041 88.7049 13.5447 88.6924 13.9875C88.6965 14.4333 88.6128 14.8755 88.4461 15.2881C88.2794 15.7008 88.0332 16.0757 87.7217 16.391C87.4102 16.7062 87.0398 16.9555 86.632 17.1242C86.2243 17.2929 85.7874 17.3776 85.3469 17.3735C84.9113 17.3799 84.4791 17.2947 84.0777 17.1232C83.6763 16.9517 83.3145 16.6977 83.0152 16.3772C82.7042 16.0649 82.4587 15.6923 82.2934 15.2817C82.1281 14.871 82.0463 14.4309 82.0531 13.9875Z" fill="white"/>
<path d="M61.408 18.1924H55.2645L55.1009 19.2671H52.1897L51.4785 23.7937H54.3909L52.3275 36.9851H54.7428C55.7843 36.9852 56.7915 36.6088 57.583 35.9239C58.3746 35.239 58.8985 34.2905 59.0604 33.2492L60.5258 23.795H63.6634L64.3745 19.2683H61.237L61.408 18.1924Z" fill="white"/>
<path d="M62.0515 14.1279H55.8809L55.2645 18.1925H61.4067L62.0515 14.1279Z" fill="white"/>
<path d="M13.5161 4.09331C13.5093 3.57129 13.6076 3.05333 13.805 2.57098C14.0023 2.08864 14.2947 1.652 14.6641 1.28766C15.0234 0.908965 15.456 0.609335 15.9349 0.407496C16.4138 0.205657 16.9286 0.105946 17.4473 0.114593C18.5916 0.114593 19.5431 0.491502 20.3019 1.24532C21.0607 1.99914 21.44 2.94847 21.44 4.09331C21.45 4.62548 21.3524 5.1541 21.153 5.64666C20.9537 6.13921 20.6569 6.5853 20.281 6.95749C19.9132 7.338 19.4725 7.63835 18.9858 7.84009C18.4991 8.04182 17.9768 8.14067 17.451 8.13056C16.9315 8.13883 16.4159 8.03796 15.9369 7.83434C15.4578 7.63071 15.0257 7.32875 14.6678 6.94753C14.2958 6.57477 14.0021 6.12982 13.8042 5.63936C13.6063 5.1489 13.5083 4.62303 13.5161 4.09331Z" fill="white"/>
<path d="M3.52766 25.5784C3.04656 25.6469 2.64914 25.7029 2.28862 25.9009C1.93913 26.0633 1.63929 26.3179 1.42062 26.638C1.20194 26.9582 1.0725 27.332 1.0459 27.7203L2.48426 38.8208L2.83001 41.624C2.84302 41.8045 2.87646 41.9829 2.92967 42.1557C2.97324 42.2947 3.03667 42.4264 3.11793 42.5468C3.28083 42.7894 3.50581 42.9826 3.76882 43.1059C4.04766 43.2346 4.35146 43.2984 4.65788 43.2926C4.96429 43.2868 5.26552 43.2115 5.53939 43.0723C5.79002 42.9517 6.00298 42.7635 6.15491 42.5285C6.30684 42.2934 6.39188 42.0205 6.40069 41.7398L5.22933 30.6667L5.10629 29.4749L6.29118 29.3504L13.1225 28.6144L14.8315 28.4413C15.3097 28.4007 15.7816 28.3041 16.2379 28.1537C17.0586 27.8598 17.4991 27.3803 17.8091 26.475C18.0909 25.6319 18.2238 24.3667 18.4551 23.2572L19.058 19.8326L20.2651 12.9835L20.5677 11.2986C20.6537 10.8465 20.6575 10.3823 20.5788 9.92877C20.5557 9.76278 20.4969 9.60395 20.4065 9.46346C20.3162 9.32296 20.1965 9.20422 20.0559 9.11559C19.7655 8.93253 19.309 8.84287 18.8255 8.83166C16.799 8.80053 14.6691 9.65605 13.3292 11.2986C12.6416 12.1198 12.1446 13.0866 11.8748 14.1279C11.7503 14.6885 11.6587 15.2561 11.6004 15.8277L11.3667 17.5861L10.434 24.4178C8.60683 24.8437 6.75628 25.0715 4.9168 25.3679L3.52766 25.5784Z" fill="white"/>
<path d="M29.2692 9.84769H23.3915L22.7419 13.9995L22.6939 14.3034L22.2583 17.0019C21.7182 20.3642 21.1595 23.8361 20.5739 27.2532C20.2047 29.4138 18.6052 30.9131 16.3904 31.1684C15.24 31.3016 13.7955 31.4635 8.66339 31.6105L10.0427 37.5605C14.1523 37.5406 16.2822 37.1508 16.7915 37.0736C22.0233 36.2791 25.3811 33.3464 26.2461 28.816C26.9844 24.9693 27.5811 21.0441 28.1717 17.18C28.3686 15.8907 28.5675 14.601 28.7685 13.3109C28.7783 13.2523 28.7746 13.1975 28.7808 13.1402L29.2692 9.84769Z" fill="white"/>
</svg>
